<svg width="696" height="460" viewBox="0 0 696 460" fill="none" xmlns="http://www.w3.org/2000/svg">
<g clip-path="url(#clip0)">
<path d="M689.306 460H6.36318C2.89235 460 0 457.108 0 453.637C0 450.166 2.89235 447.274 6.36318 447.274H689.306C692.777 447.274 695.669 450.166 695.669 453.637C695.669 457.108 692.892 460 689.306 460Z" fill="#DAE6ED"/>
<path d="M627.872 436.283C626.715 440.101 625.558 443.803 624.401 447.736H44.4265C37.9476 418.466 40.6086 377.973 60.508 354.14C69.5321 343.264 80.0603 331.579 79.5975 317.58C79.2504 305.433 70.8048 295.367 64.0945 285.186C51.5995 266.444 43.848 242.148 52.7565 221.439C62.9376 197.837 91.2826 185.689 101.232 162.087C107.596 146.931 104.935 129.809 110.488 114.537C115.578 100.422 127.032 88.7373 139.874 81.2172C155.377 72.193 173.541 68.4908 191.589 67.681C225.025 66.2926 254.527 75.6639 283.451 91.3983C326.605 114.884 368.139 138.833 419.16 124.14C463.355 111.298 538.209 51.7152 581.363 99.0341C598.254 117.545 587.264 144.039 598.949 164.517C603.576 172.616 612.138 177.822 619.079 184.069C636.896 200.151 644.532 222.248 636.202 244.924C629.029 264.592 612.716 282.062 613.989 304.044C615.146 323.944 634.814 337.595 638.516 357.148C643.607 383.642 635.624 411.061 627.872 436.283Z" fill="url(#paint0_linear)"/>
<path d="M632.269 260.543C635.739 262.626 639.442 263.898 643.375 264.245L643.028 267.948C646.383 268.295 649.738 268.063 653.094 267.253L652.168 263.667C655.87 262.741 659.457 261.006 662.696 258.461L665.01 261.353C667.208 259.502 669.059 257.535 670.679 255.221C671.026 254.758 671.373 254.296 671.605 253.717L668.365 251.75C670.448 248.28 671.72 244.577 672.067 240.644L675.77 240.991C676.117 237.636 675.885 234.281 675.075 230.926L671.489 231.851C670.563 228.149 668.828 224.562 666.283 221.323L669.175 219.009C667.324 216.811 665.357 214.96 663.043 213.34C662.58 212.993 662.118 212.646 661.539 212.414L659.572 215.654C656.102 213.571 652.399 212.299 648.466 211.952L648.813 208.249C645.458 207.902 642.103 208.134 638.747 208.944L639.673 212.53C635.971 213.456 632.384 215.191 629.145 217.736L626.831 214.844L626.715 214.96C624.517 216.811 622.666 218.778 621.046 221.092C620.699 221.554 620.352 222.133 620.005 222.596L623.244 224.562C621.162 228.033 619.889 231.851 619.542 235.669L615.84 235.322C615.493 238.677 615.724 242.032 616.534 245.387L620.121 244.462C621.046 248.164 622.782 251.75 625.327 254.99L622.435 257.304C624.286 259.502 626.252 261.353 628.566 262.973C629.029 263.32 629.608 263.667 630.07 263.898L632.269 260.543ZM630.765 219.472L631.227 220.05L630.765 219.472ZM633.657 248.164C629.029 242.495 628.913 234.628 632.847 228.959C633.657 227.802 634.698 226.645 635.855 225.719C641.524 221.092 649.391 220.976 655.06 224.909C656.217 225.719 657.374 226.761 658.3 227.917C662.928 233.586 663.043 241.454 659.11 247.123C658.3 248.28 657.259 249.437 656.102 250.362C650.433 254.99 642.565 255.106 636.896 251.172C635.739 250.362 634.583 249.321 633.657 248.164Z" fill="#DAE6ED"/>
<path d="M615.377 304.738L616.419 302.424C618.27 303.234 620.121 303.697 622.088 303.929L621.856 306.474C625.096 306.821 628.451 306.358 631.69 305.201L630.765 302.887C632.5 302.193 634.235 301.268 635.855 299.995L637.475 301.962L637.591 301.846C639.095 300.573 640.483 299.069 641.524 297.565C642.334 296.408 642.913 295.251 643.491 294.094L641.177 293.053C641.987 291.202 642.45 289.351 642.681 287.384L645.226 287.616C645.573 284.376 645.111 281.021 643.954 277.782L641.64 278.707C640.946 276.972 640.02 275.236 638.747 273.617L640.714 271.997L640.599 271.881C639.326 270.377 637.938 268.989 636.318 267.948C635.277 267.138 634.12 266.559 632.847 265.981L631.806 268.295C629.955 267.485 628.104 267.022 626.137 266.791L626.368 264.245C623.129 263.898 619.774 264.245 616.534 265.518L617.46 267.832C615.724 268.526 613.989 269.452 612.369 270.724L610.75 268.757L610.518 268.873C609.014 270.146 607.626 271.65 606.585 273.154C605.775 274.311 605.08 275.468 604.618 276.74L606.932 277.782C606.122 279.633 605.659 281.484 605.428 283.451L602.882 283.219C602.535 286.459 602.998 289.814 604.271 293.053L606.585 292.128C607.279 293.863 608.204 295.599 609.477 297.218L607.51 298.838C608.783 300.342 610.287 301.73 611.791 302.772C613.063 303.466 614.22 304.16 615.377 304.738ZM613.642 278.129C614.336 277.203 615.03 276.278 615.956 275.583C620.468 271.881 626.6 271.881 631.227 275.005C632.153 275.699 632.963 276.393 633.773 277.319C637.475 281.831 637.475 287.963 634.351 292.59C633.657 293.516 632.963 294.326 632.037 295.136C627.525 298.838 621.393 298.838 616.766 295.714C615.84 295.02 614.915 294.326 614.22 293.4C610.518 288.888 610.518 282.641 613.642 278.129Z" fill="#DAE6ED"/>
<path d="M632.153 315.151C630.996 312.837 629.608 310.639 627.988 308.788C624.864 316.771 621.278 323.944 614.567 329.728C619.427 321.745 622.319 314.11 624.286 304.97C623.013 303.813 621.625 302.656 620.236 301.73C619.658 303.697 618.964 305.664 618.038 307.399C617.228 308.903 616.303 310.292 615.377 311.564C616.534 307.862 617.344 303.929 617.576 299.995C615.724 298.954 613.873 298.028 611.907 297.334C609.593 298.954 607.163 300.226 604.965 301.383C604.386 304.391 604.155 307.631 604.271 310.639C603.577 307.978 602.998 305.317 602.767 302.425C600.916 303.35 599.064 304.276 597.329 305.317C596.403 309.945 596.172 314.688 596.403 319.316C595.247 315.382 594.552 311.217 594.321 307.052C592.817 307.978 591.313 309.019 589.693 310.292C589.462 320.589 590.619 330.307 594.205 340.025C592.007 336.786 590.156 333.083 588.536 329.381C587.726 327.53 586.917 325.679 586.454 323.828C585.528 320.704 585.297 317.465 585.181 314.11C583.214 315.845 581.248 317.696 579.512 319.547C579.512 320.01 579.512 320.473 579.628 320.936C579.744 322.093 579.975 323.249 580.322 324.522C580.785 326.836 581.363 329.266 581.942 331.695C582.983 335.513 584.487 339.215 585.76 343.149C586.222 344.306 586.569 345.578 587.032 346.735C584.371 343.612 582.173 340.025 580.438 336.207C578.471 332.042 577.083 327.646 576.157 323.249C574.537 325.216 572.918 327.299 571.529 329.381C572.57 336.207 573.496 343.38 576.388 349.628C577.083 351.016 577.892 352.404 578.702 353.677C576.967 352.636 575.463 351.363 574.19 349.743C572.57 347.661 571.529 345 570.488 342.57C569.562 340.372 568.637 338.058 567.943 335.86C565.86 340.372 564.356 345.463 563.431 350.206C564.125 352.057 565.166 353.908 566.439 355.412C567.364 356.569 568.406 357.611 569.331 358.768C572.108 362.007 573.959 366.056 575.926 369.874C573.265 368.255 570.488 366.75 568.058 364.668C565.745 362.701 563.662 360.387 561.927 357.958C561.001 364.437 560.654 371.378 562.852 377.626C563.893 380.749 565.745 383.526 568.058 385.724C570.141 387.691 574.769 389.774 578.008 389.427C579.628 394.286 585.181 398.682 590.272 399.029C598.139 399.608 606.238 395.905 612.254 391.046C612.485 390.931 612.716 390.699 612.832 390.583C611.559 390.468 610.402 390.236 609.246 390.121C604.502 389.658 598.139 387.922 594.437 384.452C603.808 387.113 612.369 385.377 621.278 382.022C625.906 376.353 629.608 369.99 632.269 363.164C631.112 364.205 629.839 365.246 628.566 366.172C621.625 371.263 612.369 372.651 603.924 371.147C616.303 367.56 626.484 359.925 635.74 351.247C636.896 345.926 637.359 339.909 636.896 334.472C635.971 336.323 634.93 338.174 634.12 340.025C632.384 343.727 630.996 347.777 628.566 350.669C625.327 354.603 621.162 355.76 617.46 356.454C615.493 356.801 613.642 357.032 611.675 357.264C614.105 355.991 616.534 354.487 618.848 352.867C620.931 351.479 623.013 349.859 624.98 347.892C630.302 342.57 633.773 335.629 636.202 328.571C635.624 325.332 634.814 322.324 633.773 319.432C629.376 327.414 624.749 333.662 617.923 339.678C624.286 332.505 629.145 324.059 632.153 315.151Z" fill="url(#paint1_linear)"/>
<path d="M592.007 377.51C593.395 377.741 594.899 377.973 596.288 378.204C599.18 378.551 602.072 378.783 605.081 378.667C608.089 378.667 611.097 378.32 614.22 377.857C617.344 377.279 623.592 375.312 623.592 375.312C623.592 375.312 617.344 377.163 614.22 377.51C611.212 377.973 608.089 378.088 605.196 378.088C602.304 378.088 599.296 377.741 596.519 377.394C595.131 377.163 593.743 376.931 592.354 376.584C591.082 376.237 590.503 376.122 589.23 375.775C591.66 371.841 592.817 369.758 594.899 365.593C596.751 365.825 598.717 365.941 600.568 365.825C602.767 365.709 604.965 365.362 607.163 364.899C611.559 363.974 616.071 362.354 620.468 360.04C616.071 362.123 611.559 363.511 607.279 364.205C605.081 364.552 602.998 364.784 600.8 364.784C598.949 364.784 597.213 364.668 595.478 364.436C597.445 360.503 598.37 358.42 600.106 354.371C602.651 354.14 605.312 353.677 607.857 352.636C610.634 351.594 613.411 350.206 616.071 348.471C618.732 346.735 621.278 344.537 623.707 342.223C626.137 339.794 630.533 334.125 630.533 334.125C630.533 334.125 626.021 339.794 623.592 342.108C621.162 344.421 618.501 346.504 615.956 348.124C613.295 349.859 610.518 351.132 607.857 352.057C605.428 352.983 602.882 353.33 600.453 353.561C602.188 349.281 602.998 347.082 604.502 342.57C606.7 341.645 608.783 340.604 610.865 339.215C612.948 337.711 615.146 335.976 616.997 334.009C618.964 332.042 620.815 329.844 622.435 327.414C624.17 324.985 627.062 319.547 627.062 319.547C627.062 319.547 624.054 324.869 622.319 327.299C620.584 329.613 618.732 331.811 616.766 333.778C614.799 335.744 612.716 337.364 610.634 338.752C608.783 340.025 606.7 340.951 604.733 341.76C606.238 337.133 606.816 334.819 607.973 329.96C610.518 327.646 612.716 324.869 614.799 321.745C616.881 318.622 620.005 311.333 620.005 311.333C620.005 311.333 616.766 318.506 614.683 321.514C612.716 324.406 610.518 326.836 608.204 329.034C609.824 322.092 610.865 315.035 611.444 307.862C610.287 317.349 608.436 326.489 605.89 335.629C605.081 333.893 604.386 332.158 603.808 330.307C603.461 329.265 603.114 328.224 602.882 327.183C602.651 326.142 602.304 324.985 602.073 323.944C601.61 321.745 601.147 319.547 600.916 317.233C600.684 315.035 600.337 310.407 600.337 310.407C600.337 310.407 600.568 315.035 600.8 317.233C601.031 319.547 601.494 321.745 601.841 323.944C602.073 325.1 602.304 326.142 602.535 327.183C602.882 328.224 603.114 329.381 603.461 330.422C604.039 332.505 604.849 334.356 605.659 336.207C604.386 340.488 603.577 342.57 601.957 346.735C600.684 344.537 599.412 342.223 598.486 339.794C597.329 337.133 596.403 334.24 595.594 331.348C594.784 328.456 594.09 325.448 593.627 322.44C593.164 319.431 592.586 313.3 592.586 313.3C592.586 313.3 592.933 319.431 593.395 322.44C593.858 325.448 594.437 328.456 595.247 331.464C596.056 334.356 596.866 337.364 598.023 340.141C599.064 342.802 600.337 345.347 601.61 347.777C600.106 351.594 599.296 353.446 597.56 357.148C597.213 356.685 597.098 356.454 596.751 355.991C596.519 355.644 596.403 355.412 596.056 355.065C595.825 354.602 595.709 354.487 595.478 354.024C595.015 353.214 594.784 352.751 594.205 352.057C593.742 351.247 593.511 350.785 593.048 349.975C591.544 347.198 590.272 344.19 589.115 341.182C587.958 338.174 586.801 335.166 585.76 332.042C584.718 328.918 582.983 322.787 582.983 322.787C582.983 322.787 584.603 329.034 585.528 332.158C586.454 335.282 587.495 338.405 588.652 341.413C589.809 344.537 591.082 347.545 592.47 350.437C592.933 351.363 593.164 351.71 593.511 352.636C593.974 353.446 594.205 353.908 594.668 354.718C594.899 355.181 595.015 355.297 595.247 355.759C595.478 356.107 595.594 356.338 595.941 356.801C596.288 357.379 596.519 357.726 596.982 358.305C595.941 360.503 595.362 361.66 594.205 363.742C592.47 362.123 590.734 360.387 589.115 358.42C587.379 356.222 585.76 354.024 584.256 351.594C582.752 349.165 581.363 346.735 580.091 344.306C578.818 341.876 576.388 336.786 576.388 336.786C576.388 336.786 578.702 341.992 579.859 344.537C581.132 347.082 582.52 349.628 583.909 352.057C585.297 354.487 586.917 356.916 588.536 359.115C590.04 361.197 591.776 363.048 593.627 364.899C592.238 367.329 591.544 368.601 590.156 371.031C589.346 370.453 588.421 369.874 587.611 369.296C586.569 368.486 585.528 367.792 584.487 366.866C582.405 365.246 580.553 363.511 578.702 361.66C576.851 359.809 575 357.842 573.38 355.875C571.645 353.908 568.521 349.628 568.521 349.628C568.521 349.628 571.529 354.024 573.149 356.107C574.769 358.189 576.504 360.156 578.355 362.123C580.206 363.974 582.057 365.941 584.024 367.676C584.95 368.601 585.991 369.411 587.032 370.221C587.842 370.915 588.652 371.494 589.462 372.072C586.454 377.047 584.834 379.361 581.248 383.989C579.281 383.41 577.545 382.485 575.926 381.328C574.074 379.94 572.455 378.32 571.066 376.469C569.678 374.618 568.29 372.651 567.133 370.568C565.976 368.486 563.893 364.205 563.893 364.205C563.893 364.205 565.745 368.601 566.901 370.684C568.058 372.766 569.215 374.849 570.604 376.816C571.992 378.667 573.612 380.518 575.347 382.022C576.851 383.295 578.587 384.22 580.438 384.914C575.347 391.625 569.447 397.988 563.315 403.773C564.009 404.582 564.356 404.929 565.166 405.739C571.414 399.608 577.198 393.129 582.289 386.071C583.446 387.113 584.603 388.154 585.875 389.079C587.379 390.121 589.115 391.046 590.966 391.74C592.701 392.434 594.668 393.013 596.635 393.36C598.602 393.707 600.684 393.823 602.767 393.707C600.684 393.823 598.602 393.591 596.751 393.129C594.784 392.666 592.933 392.087 591.313 391.278C589.578 390.468 587.958 389.426 586.454 388.385C585.181 387.46 584.024 386.418 582.983 385.261C585.297 382.022 586.454 380.402 588.536 376.931C589.925 377.047 590.619 377.163 592.007 377.51Z" fill="#7DA6E2"/>
<path d="M677.505 373.461C677.505 370.453 677.274 367.676 676.695 365.015C669.406 371.378 662.118 376.7 652.631 378.898C661.655 373.461 668.365 367.445 675.075 359.346C674.381 357.495 673.571 355.644 672.646 354.024C671.026 355.76 669.291 357.264 667.555 358.536C666.051 359.693 664.432 360.619 662.696 361.313C665.82 358.305 668.597 354.718 670.91 350.9C669.638 348.934 668.249 347.083 666.63 345.347C663.506 345.694 660.498 345.81 657.606 345.81C655.523 348.587 653.672 351.595 652.052 354.718C652.631 351.71 653.556 348.702 654.829 345.81C652.515 345.81 650.201 345.81 647.887 345.81C644.648 349.975 641.871 354.487 639.789 359.23C640.599 354.718 642.103 350.206 643.954 346.041C641.871 346.157 639.904 346.504 637.706 346.851C632.153 356.917 628.335 367.213 626.947 378.783C626.368 374.386 626.484 369.759 626.715 365.247C626.831 363.048 627.062 360.85 627.525 358.652C628.219 355.065 629.608 351.71 631.227 348.355C628.335 349.049 625.443 349.859 622.782 350.785C622.55 351.248 622.319 351.71 622.203 352.173C621.74 353.446 621.393 354.718 621.046 355.991C620.352 358.652 619.542 361.313 619.079 363.974C618.154 368.37 617.691 372.767 616.997 377.279C616.766 378.667 616.534 380.171 616.418 381.559C615.377 377.047 615.03 372.42 615.261 367.676C615.493 362.586 616.303 357.495 617.691 352.636C615.03 353.677 612.369 354.95 609.94 356.338C607.51 363.743 604.733 371.263 604.386 379.014C604.271 380.75 604.386 382.485 604.618 384.22C603.461 382.254 602.535 380.287 602.188 377.973C601.61 374.965 601.957 371.841 602.188 368.833C602.419 366.172 602.651 363.395 603.114 360.85C598.717 364.205 594.552 368.486 591.197 372.767C590.966 375.081 591.081 377.279 591.544 379.593C591.891 381.212 592.354 382.832 592.701 384.452C593.742 389.08 593.511 394.054 593.511 398.914C591.66 395.905 589.809 393.013 588.42 389.774C587.148 386.65 586.338 383.295 585.875 379.94C581.594 385.956 577.777 392.666 576.62 399.955C576.041 403.541 576.504 407.359 577.661 410.714C578.702 413.722 582.289 418.234 585.644 419.507C584.718 425.176 588.073 432.349 592.933 435.357C600.453 439.985 610.402 440.563 618.848 438.828C619.195 438.712 619.427 438.712 619.774 438.597C618.617 437.902 617.46 437.093 616.418 436.283C612.022 433.39 606.469 428.3 604.618 422.978C612.601 430.498 621.972 433.159 632.616 434.432C640.136 431.192 647.193 426.68 653.325 421.243C651.589 421.705 649.854 422.052 648.119 422.284C638.632 423.788 628.566 420.317 621.046 414.532C635.161 417.425 649.276 415.111 662.928 411.061C666.745 406.318 670.332 400.649 672.762 394.98C670.91 396.253 668.944 397.641 667.092 399.145C663.506 401.922 659.919 405.161 656.102 406.896C650.895 409.21 646.152 408.169 641.987 406.896C639.904 406.202 637.822 405.508 635.855 404.698C638.979 404.583 642.103 404.467 645.226 404.004C648.003 403.657 651.011 403.194 653.903 402.269C661.886 399.723 668.944 394.517 675.075 388.848C676.232 385.377 676.927 381.907 677.274 378.436C668.828 384.105 660.961 387.923 651.011 390.352C660.614 386.766 669.869 380.865 677.505 373.461Z" fill="url(#paint2_linear)"/>
<path d="M605.428 414.879C606.7 415.805 607.973 416.846 609.361 417.772C612.022 419.507 614.915 421.358 617.923 422.747C620.931 424.251 624.054 425.523 627.41 426.68C630.765 427.721 638.053 428.994 638.053 428.994C638.053 428.994 630.88 427.606 627.641 426.449C624.401 425.292 621.278 423.903 618.385 422.284C615.493 420.78 612.716 418.929 610.171 417.078C608.899 416.152 607.626 415.111 606.353 414.185C605.312 413.26 604.733 412.797 603.692 411.871C608.204 409.21 610.403 407.706 614.568 404.698C616.303 405.855 618.154 406.896 620.121 407.822C622.319 408.863 624.633 409.673 627.062 410.367C631.922 411.64 637.128 412.45 642.681 412.45C637.244 412.218 632.153 411.293 627.41 409.789C625.096 409.095 622.782 408.169 620.699 407.128C618.848 406.202 617.228 405.161 615.609 404.004C619.658 401.112 621.625 399.608 625.443 396.368C628.104 397.41 630.996 398.335 634.12 398.682C637.359 399.029 640.83 399.145 644.417 398.682C648.003 398.219 651.59 397.525 655.292 396.368C658.994 395.211 666.283 391.74 666.283 391.74C666.283 391.74 658.994 394.98 655.292 396.137C651.705 397.178 648.003 397.872 644.532 398.219C641.061 398.566 637.591 398.451 634.467 397.988C631.575 397.641 628.914 396.715 626.368 395.674C630.302 392.319 632.269 390.468 635.971 386.881C638.632 387.113 641.293 387.113 644.07 386.766C646.962 386.419 649.97 385.724 652.862 384.799C655.87 383.873 658.763 382.601 661.771 381.097C664.663 379.593 670.332 375.659 670.332 375.659C670.332 375.659 664.663 379.477 661.655 380.865C658.763 382.369 655.755 383.526 652.862 384.336C649.97 385.262 646.962 385.84 644.185 386.071C641.64 386.303 639.21 386.303 636.781 386.071C640.599 382.254 642.45 380.171 646.036 376.006C649.739 374.965 653.441 373.345 657.027 371.378C660.729 369.296 667.555 363.742 667.555 363.742C667.555 363.742 660.614 369.18 657.027 371.147C653.672 372.998 650.201 374.386 646.73 375.312C651.821 369.18 656.564 362.701 660.845 355.991C654.713 364.784 648.234 372.882 640.946 380.75C641.061 378.667 641.177 376.585 641.524 374.386C641.64 373.229 641.987 371.957 642.218 370.8C642.565 369.643 642.797 368.37 643.144 367.213C643.838 364.784 644.532 362.354 645.458 360.04C646.383 357.611 648.35 352.983 648.35 352.983C648.35 352.983 646.152 357.611 645.226 360.04C644.301 362.47 643.491 364.899 642.797 367.213C642.45 368.37 642.103 369.643 641.871 370.916C641.64 372.188 641.293 373.345 641.177 374.618C640.714 376.932 640.483 379.246 640.367 381.559C636.896 385.146 635.045 386.881 631.343 390.236C631.227 387.344 631.227 384.452 631.459 381.444C631.69 378.204 632.269 374.849 632.847 371.494C633.541 368.139 634.351 364.899 635.392 361.66C636.434 358.421 639.095 352.057 639.095 352.057C639.095 352.057 636.318 358.421 635.161 361.66C634.004 364.899 633.079 368.255 632.384 371.494C631.69 374.849 630.996 378.204 630.765 381.559C630.418 384.799 630.418 387.807 630.418 390.931C626.947 393.939 625.211 395.327 621.625 398.104C621.509 397.525 621.509 397.178 621.393 396.6C621.278 396.137 621.278 395.79 621.162 395.327C621.162 394.749 621.162 394.517 621.046 394.054C620.931 393.013 620.931 392.435 620.815 391.393C620.815 390.352 620.815 389.774 620.815 388.732C620.815 385.146 621.046 381.559 621.393 377.973C621.74 374.386 622.203 370.8 622.782 367.213C623.36 363.627 624.864 356.569 624.864 356.569C624.864 356.569 623.245 363.627 622.55 367.213C621.856 370.8 621.278 374.386 620.815 378.089C620.352 381.675 620.005 385.377 619.889 388.964C619.889 390.005 619.889 390.584 619.774 391.74C619.774 392.782 619.889 393.36 619.889 394.401C619.889 394.98 619.889 395.211 619.889 395.79C619.889 396.368 620.005 396.6 620.005 397.062C620.121 397.872 620.121 398.335 620.236 399.145C618.038 400.765 616.881 401.574 614.568 403.194C613.642 400.649 612.832 397.988 612.254 395.327C611.675 392.319 611.212 389.195 610.981 386.071C610.75 382.948 610.634 379.824 610.518 376.585C610.518 373.461 610.75 367.098 610.75 367.098C610.75 367.098 610.287 373.345 610.287 376.585C610.171 379.708 610.287 382.948 610.402 386.071C610.518 389.195 610.865 392.435 611.328 395.558C611.791 398.451 612.485 401.227 613.411 403.888C610.75 405.624 609.477 406.549 606.7 408.169C606.122 407.128 605.543 406.202 605.081 405.161C604.502 403.888 603.808 402.616 603.229 401.227C602.073 398.566 601.031 395.79 600.106 393.013C599.18 390.236 598.37 387.344 597.792 384.567C597.098 381.675 596.172 375.89 596.172 375.89C596.172 375.89 596.866 381.791 597.445 384.683C598.023 387.576 598.717 390.468 599.527 393.36C600.337 396.137 601.263 399.029 602.304 401.806C602.767 403.194 603.461 404.583 604.039 405.855C604.502 406.896 604.965 407.938 605.543 408.979C599.99 412.334 597.098 413.838 591.313 416.615C589.693 414.995 588.305 413.26 587.379 411.177C586.338 408.863 585.528 406.318 585.066 403.773C584.603 401.227 584.371 398.566 584.256 395.905C584.14 393.245 584.371 387.923 584.371 387.923C584.371 387.923 584.024 393.245 584.024 395.905C584.024 398.566 584.14 401.227 584.603 403.888C584.95 406.434 585.644 409.095 586.685 411.524C587.495 413.491 588.768 415.342 590.272 417.078C581.71 421.127 572.686 424.366 563.546 426.912C563.893 428.068 564.009 428.647 564.356 429.804C573.612 426.912 582.752 423.441 591.544 419.044C592.123 420.664 592.817 422.284 593.627 423.788C594.668 425.639 595.825 427.49 597.213 429.11C598.602 430.729 600.221 432.233 602.073 433.622C603.924 435.01 605.89 436.167 608.089 437.093C605.89 436.051 604.039 434.779 602.42 433.39C600.684 432.002 599.18 430.382 597.908 428.763C596.635 427.027 595.478 425.292 594.552 423.441C593.858 421.937 593.28 420.201 592.701 418.582C596.751 416.499 598.717 415.458 602.535 413.144C603.577 413.375 604.155 413.838 605.428 414.879Z" fill="#7DA6E2"/>
<path d="M48.2444 373.461C48.2444 370.453 48.4758 367.676 49.0542 365.015C56.343 371.378 63.6317 376.7 73.1186 378.898C64.0945 373.461 57.3842 367.445 50.674 359.346C51.3681 357.495 52.178 355.644 53.1035 354.024C54.7233 355.76 56.4587 357.264 58.1941 358.536C59.6981 359.693 61.3178 360.619 63.0532 361.313C59.9295 358.305 57.1528 354.718 54.839 350.9C56.1116 348.934 57.4999 347.083 59.1196 345.347C62.2434 345.694 65.2514 345.81 68.1438 345.81C70.2263 348.587 72.0774 351.595 73.6971 354.718C73.1186 351.71 72.1931 348.702 70.9204 345.81C73.2343 345.81 75.5482 345.81 77.8621 345.81C81.1015 349.975 83.8782 354.487 85.9607 359.23C85.1508 354.718 83.6468 350.206 81.7957 346.041C83.8782 346.157 85.845 346.504 88.0432 346.851C93.5965 356.917 97.4144 367.213 98.8027 378.783C99.3812 374.386 99.2655 369.759 99.0341 365.247C98.9184 363.048 98.687 360.85 98.2243 358.652C97.5301 355.065 96.1418 351.71 94.522 348.355C97.4144 349.049 100.307 349.859 102.968 350.785C103.199 351.248 103.43 351.71 103.546 352.173C104.009 353.446 104.356 354.718 104.703 355.991C105.397 358.652 106.207 361.313 106.67 363.974C107.595 368.37 108.058 372.767 108.752 377.279C108.984 378.667 109.215 380.171 109.331 381.559C110.372 377.047 110.719 372.42 110.488 367.676C110.256 362.586 109.447 357.495 108.058 352.636C110.719 353.677 113.38 354.95 115.81 356.338C118.239 363.743 121.016 371.263 121.363 379.014C121.479 380.75 121.363 382.485 121.132 384.22C122.289 382.254 123.214 380.287 123.561 377.973C124.14 374.965 123.793 371.841 123.561 368.833C123.33 366.172 123.099 363.395 122.636 360.85C127.032 364.205 131.197 368.486 134.552 372.767C134.784 375.081 134.668 377.279 134.205 379.593C133.858 381.212 133.395 382.832 133.048 384.452C132.007 389.08 132.238 394.054 132.238 398.914C134.089 395.905 135.941 393.013 137.329 389.774C138.602 386.65 139.411 383.295 139.874 379.94C144.155 385.956 147.973 392.666 149.13 399.955C149.708 403.541 149.245 407.359 148.088 410.714C147.047 413.722 143.461 418.234 140.106 419.507C141.031 425.176 137.676 432.349 132.817 435.357C125.297 439.985 115.347 440.563 106.901 438.828C106.554 438.712 106.323 438.712 105.976 438.597C107.133 437.902 108.29 437.093 109.331 436.283C113.727 433.39 119.281 428.3 121.132 422.978C113.149 430.498 103.778 433.159 93.1337 434.432C85.6136 431.192 78.5562 426.68 72.4245 421.243C74.1599 421.705 75.8953 422.052 77.6307 422.284C87.1176 423.788 97.183 420.317 104.703 414.532C90.5884 417.425 76.4738 415.111 62.8218 411.061C59.0039 406.318 55.4174 400.649 52.9878 394.98C54.8389 396.253 56.8058 397.641 58.6569 399.145C62.2434 401.922 65.8299 405.161 69.6478 406.896C74.854 409.21 79.5975 408.169 83.7625 406.896C85.845 406.202 87.9275 405.508 89.8943 404.698C86.7705 404.583 83.6468 404.467 80.5231 404.004C77.7464 403.657 74.7383 403.194 71.846 402.269C63.8631 399.723 56.8058 394.517 50.674 388.848C49.517 385.377 48.8229 381.907 48.4758 378.436C56.9214 384.105 64.7886 387.923 74.7383 390.352C65.02 386.766 55.8802 380.865 48.2444 373.461Z" fill="url(#paint3_linear)"/>
<path d="M120.322 414.879C119.049 415.805 117.777 416.846 116.388 417.772C113.727 419.507 110.835 421.358 107.827 422.747C104.819 424.251 101.695 425.523 98.34 426.68C94.9849 427.721 87.6962 428.994 87.6962 428.994C87.6962 428.994 94.8692 427.606 98.1086 426.449C101.348 425.292 104.472 423.903 107.364 422.284C110.257 420.78 113.033 418.929 115.578 417.078C116.851 416.152 118.124 415.111 119.396 414.185C120.438 413.26 121.016 412.797 122.057 411.871C117.545 409.21 115.347 407.706 111.182 404.698C109.447 405.855 107.596 406.896 105.629 407.822C103.431 408.863 101.117 409.673 98.6871 410.367C93.8279 411.64 88.6217 412.45 83.0684 412.45C88.506 412.218 93.5966 411.293 98.34 409.789C100.654 409.095 102.968 408.169 105.05 407.128C106.901 406.202 108.521 405.161 110.141 404.004C106.092 401.112 104.125 399.608 100.307 396.368C97.6459 397.41 94.7535 398.335 91.6298 398.682C88.3903 399.029 84.9195 399.145 81.333 398.682C77.7465 398.219 74.1599 397.525 70.4577 396.368C66.7555 395.211 59.4668 391.74 59.4668 391.74C59.4668 391.74 66.7555 394.98 70.4577 396.137C74.0442 397.178 77.7465 397.872 81.2173 398.219C84.6881 398.566 88.1589 398.451 91.2827 397.988C94.175 397.641 96.836 396.715 99.3813 395.674C95.4477 392.319 93.4809 390.468 89.7786 386.881C87.1177 387.113 84.4567 387.113 81.6801 386.766C78.7877 386.419 75.7797 385.724 72.8873 384.799C69.8793 383.873 66.9869 382.601 63.9788 381.097C61.0865 379.593 55.4175 375.659 55.4175 375.659C55.4175 375.659 61.0865 379.477 64.0945 380.865C66.9869 382.369 69.9949 383.526 72.8873 384.336C75.7797 385.262 78.7877 385.84 81.5644 386.071C84.1096 386.303 86.5392 386.303 88.9688 386.071C85.1509 382.254 83.2998 380.171 79.7133 376.006C76.011 374.965 72.3088 373.345 68.7223 371.378C65.0201 369.296 58.1941 363.742 58.1941 363.742C58.1941 363.742 65.1358 369.18 68.7223 371.147C72.0774 372.998 75.5483 374.386 79.0191 375.312C73.9286 369.18 69.1851 362.701 64.9044 355.991C71.0362 364.784 77.5151 372.882 84.8038 380.75C84.6881 378.667 84.5724 376.585 84.2253 374.386C84.1096 373.229 83.7625 371.957 83.5312 370.8C83.1841 369.643 82.9527 368.37 82.6056 367.213C81.9114 364.784 81.2173 362.354 80.2917 360.04C79.3662 357.611 77.3994 352.983 77.3994 352.983C77.3994 352.983 79.5976 357.611 80.5231 360.04C81.4487 362.47 82.2585 364.899 82.9527 367.213C83.2998 368.37 83.6469 369.643 83.8782 370.916C84.1096 372.188 84.4567 373.345 84.5724 374.618C85.0352 376.932 85.2666 379.246 85.3823 381.559C88.8531 385.146 90.7042 386.881 94.4064 390.236C94.5221 387.344 94.5221 384.452 94.2907 381.444C94.0593 378.204 93.4809 374.849 92.9024 371.494C92.2082 368.139 91.3984 364.899 90.3571 361.66C89.3159 358.421 86.6549 352.057 86.6549 352.057C86.6549 352.057 89.4316 358.421 90.5885 361.66C91.7455 364.899 92.671 368.255 93.3652 371.494C94.0593 374.849 94.7535 378.204 94.9849 381.559C95.332 384.799 95.332 387.807 95.332 390.931C98.8028 393.939 100.538 395.327 104.125 398.104C104.24 397.525 104.24 397.178 104.356 396.6C104.472 396.137 104.472 395.79 104.588 395.327C104.588 394.749 104.588 394.517 104.703 394.054C104.819 393.013 104.819 392.435 104.935 391.393C104.935 390.352 104.935 389.774 104.935 388.732C104.935 385.146 104.703 381.559 104.356 377.973C104.009 374.386 103.546 370.8 102.968 367.213C102.389 363.627 100.885 356.569 100.885 356.569C100.885 356.569 102.505 363.627 103.199 367.213C103.893 370.8 104.472 374.386 104.935 378.089C105.397 381.675 105.744 385.377 105.86 388.964C105.86 390.005 105.86 390.584 105.976 391.74C105.976 392.782 105.86 393.36 105.86 394.401C105.86 394.98 105.86 395.211 105.86 395.79C105.86 396.368 105.744 396.6 105.744 397.062C105.629 397.872 105.629 398.335 105.513 399.145C107.711 400.765 108.868 401.574 111.182 403.194C112.108 400.649 112.917 397.988 113.496 395.327C114.074 392.319 114.537 389.195 114.769 386.071C115 382.948 115.116 379.824 115.231 376.585C115.231 373.461 115 367.098 115 367.098C115 367.098 115.463 373.345 115.463 376.585C115.578 379.708 115.463 382.948 115.347 386.071C115.231 389.195 114.884 392.435 114.422 395.558C113.959 398.451 113.265 401.227 112.339 403.888C115 405.624 116.273 406.549 119.049 408.169C119.628 407.128 120.206 406.202 120.669 405.161C121.247 403.888 121.942 402.616 122.52 401.227C123.677 398.566 124.718 395.79 125.644 393.013C126.569 390.236 127.379 387.344 127.958 384.567C128.652 381.675 129.577 375.89 129.577 375.89C129.577 375.89 128.883 381.791 128.305 384.683C127.726 387.576 127.032 390.468 126.222 393.36C125.412 396.137 124.487 399.029 123.446 401.806C122.983 403.194 122.289 404.583 121.71 405.855C121.247 406.896 120.785 407.938 120.206 408.979C125.76 412.334 128.652 413.838 134.437 416.615C136.056 414.995 137.445 413.26 138.37 411.177C139.411 408.863 140.221 406.318 140.684 403.773C141.147 401.227 141.378 398.566 141.494 395.905C141.61 393.245 141.378 387.923 141.378 387.923C141.378 387.923 141.725 393.245 141.725 395.905C141.725 398.566 141.61 401.227 141.147 403.888C140.8 406.434 140.106 409.095 139.064 411.524C138.255 413.491 136.982 415.342 135.478 417.078C144.039 421.127 153.063 424.366 162.203 426.912C161.856 428.068 161.74 428.647 161.393 429.804C152.138 426.912 142.998 423.441 134.205 419.044C133.627 420.664 132.933 422.284 132.123 423.788C131.081 425.639 129.925 427.49 128.536 429.11C127.148 430.729 125.528 432.233 123.677 433.622C121.826 435.01 119.859 436.167 117.661 437.093C119.859 436.051 121.71 434.779 123.33 433.39C125.065 432.002 126.569 430.382 127.842 428.763C129.115 427.027 130.272 425.292 131.197 423.441C131.891 421.937 132.47 420.201 133.048 418.582C128.999 416.499 127.032 415.458 123.214 413.144C122.173 413.375 121.595 413.838 120.322 414.879Z" fill="#7DA6E2"/>
<path d="M64.7887 342.686C67.334 330.191 84.2254 344.769 88.3903 348.471C82.1429 340.025 73.2344 333.662 66.1771 326.489C61.2022 321.398 63.5161 312.837 67.7968 307.746C73.003 301.615 80.7545 307.515 84.5724 311.911C81.9115 304.97 71.2676 298.26 72.5402 290.739C73.6972 283.798 81.6801 277.319 89.2002 277.782C96.7203 278.244 106.207 283.335 107.48 290.971C108.405 296.987 99.0342 301.615 98.8028 308.788C102.968 301.962 111.645 297.797 118.587 303.813C127.148 311.333 113.727 325.679 115.578 335.513C116.851 328.571 122.404 312.953 132.007 316.771C143.924 321.398 132.354 341.413 128.536 347.892C122.173 358.536 133.395 386.418 133.395 386.418C133.395 386.418 110.257 374.618 98.6871 370.568C87.2334 366.519 61.2022 359.577 64.7887 342.686Z" fill="url(#paint4_linear)"/>
<path d="M93.2495 356.685C97.0674 358.305 101.001 359.925 104.819 361.544C107.943 362.817 111.066 364.205 114.19 365.478C108.521 357.379 103.893 348.471 100.075 339.331C95.5634 335.166 91.0513 331.117 86.1922 327.299C83.7626 325.332 81.333 323.481 78.9034 321.514C76.4739 319.663 71.6147 315.845 71.6147 315.845C71.6147 315.845 76.4739 319.432 78.9034 321.283C81.333 323.134 83.7626 324.985 86.3079 326.836C90.8199 330.191 95.1006 333.778 99.2656 337.48C95.4477 328.109 93.0181 318.39 91.0513 308.556C90.3572 307.052 89.4316 305.664 88.5061 304.276C87.5805 302.887 86.6549 301.499 85.6137 300.226C83.6469 297.565 81.6801 295.02 79.5976 292.475C81.6801 294.904 83.7626 297.45 85.7294 299.995C86.7706 301.268 87.6962 302.54 88.7374 303.929C89.4316 304.97 90.1258 306.011 90.7042 307.052C89.663 299.532 89.0845 292.243 88.8531 284.608C89.2002 292.128 90.0101 299.532 91.167 307.052C91.3984 305.664 91.7455 304.16 92.2083 302.887C92.7867 301.152 93.3652 299.417 94.1751 297.912C95.6791 294.789 99.6127 289.467 99.6127 289.467C99.6127 289.467 95.7948 294.904 94.4065 298.028C93.7123 299.648 93.1338 301.383 92.5553 303.119C92.0926 304.854 91.7455 306.705 91.5141 308.556C93.5966 318.39 96.3733 328.109 100.307 337.364C100.538 334.703 101.001 332.042 101.579 329.613C102.389 326.605 103.431 323.712 104.703 321.051C105.976 318.39 107.364 315.845 108.984 313.531C110.604 311.217 114.074 307.052 114.074 307.052C114.074 307.052 110.604 311.333 109.1 313.647C107.596 316.076 106.207 318.622 105.05 321.283C103.893 323.944 102.852 326.836 102.158 329.96C101.464 332.736 101.117 335.86 101.001 338.868C104.935 347.892 109.794 356.569 115.578 364.437C115.463 360.734 115.694 357.148 116.273 353.793C116.967 349.743 118.008 345.694 119.281 341.992C120.553 338.29 122.173 334.703 124.024 331.464C125.875 328.109 130.04 322.093 130.04 322.093C130.04 322.093 125.875 328.224 124.14 331.58C122.404 334.935 120.9 338.521 119.743 342.339C118.471 346.041 117.545 350.091 117.083 354.14C116.62 357.958 116.388 362.007 116.735 366.056C127.958 380.634 140.8 392.55 156.303 402.616C155.609 403.657 155.377 404.12 154.683 405.161C139.18 394.633 126.338 382.254 115.231 367.098C111.761 365.478 108.174 363.858 104.703 362.354C100.885 360.619 97.0674 358.999 93.1338 357.264C85.498 353.793 70.4578 346.388 70.4578 346.388C70.5735 346.504 85.6137 353.446 93.2495 356.685Z" fill="#7DA6E2"/>
<path d="M379.593 28.5765C379.593 13.4206 362.123 1.15698 340.719 1.15698C319.2 1.15698 301.846 13.4206 301.846 28.6922C301.846 43.8481 319.316 56.2274 340.719 56.2274C346.504 56.2274 351.942 55.3019 356.801 53.7978L369.527 62.4749L363.743 50.9055C373.345 45.8149 379.593 37.7163 379.593 28.5765ZM323.481 32.8572C320.704 32.8572 318.506 30.659 318.506 27.8823C318.506 25.1057 320.704 22.9075 323.481 22.9075C326.258 22.9075 328.456 25.1057 328.456 27.8823C328.456 30.659 326.142 32.8572 323.481 32.8572ZM340.719 32.8572C337.943 32.8572 335.745 30.659 335.745 27.8823C335.745 25.1057 337.943 22.9075 340.719 22.9075C343.496 22.9075 345.694 25.1057 345.694 27.8823C345.579 30.659 343.38 32.8572 340.719 32.8572ZM357.842 32.8572C355.065 32.8572 352.867 30.659 352.867 27.8823C352.867 25.1057 355.065 22.9075 357.842 22.9075C360.619 22.9075 362.817 25.1057 362.817 27.8823C362.817 30.659 360.619 32.8572 357.842 32.8572Z" fill="#DAE6ED"/>
<path d="M548.275 59.1197C545.151 59.1197 542.721 61.665 542.721 64.673C542.721 67.7967 545.267 70.2263 548.275 70.2263C551.398 70.2263 553.828 67.6811 553.828 64.673C553.944 61.665 551.398 59.1197 548.275 59.1197ZM535.201 51.0211L540.176 56.2273C542.258 54.1448 545.151 52.9879 548.39 52.9879C551.63 52.9879 554.406 54.2605 556.605 56.2273L561.579 51.0211C558.224 47.7817 553.597 45.6992 548.506 45.6992C543.184 45.6992 538.556 47.7817 535.201 51.0211ZM548.275 15.7344C535.085 15.7344 523.169 20.9406 514.376 29.3863L519.351 34.5925C526.871 27.4195 537.052 23.0231 548.275 23.0231C559.497 23.0231 569.678 27.4195 577.198 34.5925L582.173 29.3863C573.38 20.9406 561.464 15.7344 548.275 15.7344ZM524.904 40.3772L529.879 45.5835C534.623 40.9557 541.102 38.179 548.275 38.179C555.448 38.179 561.926 40.9557 566.67 45.5835L571.645 40.3772C565.629 34.5925 557.414 31.006 548.275 31.006C539.25 30.8903 531.036 34.4768 524.904 40.3772Z" fill="#DAE6ED"/>
<path d="M254.527 27.8823C250.362 29.502 246.891 32.51 244.809 36.328H251.635C252.445 32.3944 253.602 29.6177 254.527 27.8823ZM270.03 45.9306H261.816V52.8722H269.452C269.799 50.7897 270.03 48.5915 270.03 45.9306ZM250.825 45.9306H242.495C242.611 48.3602 243.189 50.674 244.115 52.8722H251.403C251.056 50.7897 250.825 48.5915 250.825 45.9306ZM251.403 37.7163H244.115C243.189 39.7988 242.611 42.1127 242.495 44.6579H250.825C250.825 41.997 251.056 39.6831 251.403 37.7163ZM271.418 44.5422H279.517C279.401 42.1127 278.823 39.7988 277.897 37.6006H270.84C271.187 39.6831 271.418 41.997 271.418 44.5422ZM277.319 36.328C275.236 32.51 271.881 29.502 267.832 27.998C268.757 29.7334 269.914 32.51 270.724 36.328H277.319ZM266.096 27.4195C264.708 27.0724 263.32 26.841 261.816 26.7253V36.328H269.22C268.41 32.0473 267.138 29.1549 266.096 27.4195ZM269.567 37.7163H261.931V44.6579H270.146C270.03 41.997 269.799 39.6831 269.567 37.7163ZM253.023 36.328H260.427V26.7253C258.923 26.7253 257.535 26.9567 256.147 27.4195C255.221 29.0392 253.833 32.0473 253.023 36.328ZM267.716 62.5905C271.765 60.9708 275.121 57.9628 277.319 54.2606H270.724C269.914 58.0785 268.757 60.8551 267.716 62.5905ZM261.816 54.2606V63.8632C263.32 63.7475 264.708 63.6318 265.981 63.169C267.022 61.4336 268.41 58.5412 269.22 54.2606H261.816ZM270.84 52.8722H277.897C278.823 50.7897 279.401 48.4758 279.517 45.9306H271.418C271.418 48.5915 271.187 50.7897 270.84 52.8722ZM252.792 52.8722H260.427V45.9306H252.213C252.213 48.5915 252.445 50.7897 252.792 52.8722ZM256.262 63.169C257.651 63.5161 259.039 63.7475 260.427 63.7475V54.1449H253.023C253.833 58.5412 255.221 61.5493 256.262 63.169ZM244.809 54.2606C246.891 58.0785 250.362 61.0865 254.527 62.7062C253.486 60.9708 252.329 58.1942 251.635 54.2606H244.809ZM252.213 44.5422H260.427V37.6006H252.792C252.445 39.6831 252.213 41.997 252.213 44.5422Z" fill="#DAE6ED"/>
<path d="M234.512 45.9307H232.198" stroke="#DAE6ED" stroke-width="2" stroke-linecap="round" stroke-linejoin="round"/>
<path d="M226.298 45.9307H82.9529" stroke="#DAE6ED" stroke-width="2" stroke-linecap="round" stroke-linejoin="round" stroke-dasharray="4.02 4.02"/>
<path d="M80.0605 45.9307H77.7466V48.2445" stroke="#DAE6ED" stroke-width="2" stroke-linecap="round" stroke-linejoin="round"/>
<path d="M77.7466 54.2607V137.792" stroke="#DAE6ED" stroke-width="2" stroke-linecap="round" stroke-linejoin="round" stroke-dasharray="4.15 4.15"/>
<path d="M77.7466 140.8V143.114H80.0605" stroke="#DAE6ED" stroke-width="2" stroke-linecap="round" stroke-linejoin="round"/>
<path d="M84.1099 143.114H89.5475" stroke="#DAE6ED" stroke-width="2" stroke-linecap="round" stroke-linejoin="round" stroke-dasharray="2.86 2.86"/>
<path d="M91.6299 143.114H93.9438" stroke="#DAE6ED" stroke-width="2" stroke-linecap="round" stroke-linejoin="round"/>
<path d="M584.487 52.7566H586.801" stroke="#DAE6ED" stroke-width="2" stroke-linecap="round" stroke-linejoin="round"/>
<path d="M592.47 52.7566H619.889" stroke="#DAE6ED" stroke-width="2" stroke-linecap="round" stroke-linejoin="round" stroke-dasharray="3.88 3.88"/>
<path d="M622.666 52.7566H624.98V55.0705" stroke="#DAE6ED" stroke-width="2" stroke-linecap="round" stroke-linejoin="round"/>
<path d="M624.98 60.8552V141.147" stroke="#DAE6ED" stroke-width="2" stroke-linecap="round" stroke-linejoin="round" stroke-dasharray="3.99 3.99"/>
<path d="M624.98 144.039V146.353H627.294" stroke="#DAE6ED" stroke-width="2" stroke-linecap="round" stroke-linejoin="round"/>
<path d="M632.847 146.353H649.738" stroke="#DAE6ED" stroke-width="2" stroke-linecap="round" stroke-linejoin="round" stroke-dasharray="3.77 3.77"/>
<path d="M652.399 146.353H654.713V148.667" stroke="#DAE6ED" stroke-width="2" stroke-linecap="round" stroke-linejoin="round"/>
<path d="M654.713 153.758V188.697" stroke="#DAE6ED" stroke-width="2" stroke-linecap="round" stroke-linejoin="round" stroke-dasharray="3.6 3.6"/>
<path d="M654.713 191.242V193.556" stroke="#DAE6ED" stroke-width="2" stroke-linecap="round" stroke-linejoin="round"/>
<path d="M71.0364 143.114L56.2275 134.668V151.559L71.0364 143.114Z" fill="#DAE6ED"/>
<path d="M54.8392 143.114L40.146 134.668V151.559L54.8392 143.114Z" fill="#DAE6ED"/>
<path d="M57.2687 304.391L53.3351 300.458C53.3351 300.458 52.2939 299.532 51.2526 300.111L49.0544 302.425L48.476 303.119C47.4347 304.391 44.4267 301.73 44.4267 301.73C42.2285 300.573 37.1379 294.673 37.1379 294.673C34.7083 291.781 36.0967 290.624 36.0967 290.624L36.7908 289.93L39.2204 287.616C39.2204 287.616 40.4931 286.806 37.0222 283.798L32.9729 279.749C32.9729 279.749 31.9317 278.707 30.8904 279.401L28.6922 281.831L27.9981 282.525C26.2627 285.07 27.0725 289.351 27.0725 289.351C29.9649 300.342 42.6912 308.672 42.6912 308.672C53.3351 315.151 56.4588 310.87 56.4588 310.87L57.153 310.292L59.4669 308.094C59.3512 308.094 60.7395 307.284 57.2687 304.391Z" fill="#DAE6ED"/>
<path d="M642.45 131.081C642.45 130.503 642.218 129.925 641.755 129.462C641.293 128.999 640.714 128.768 640.136 128.768C639.557 128.768 638.979 128.999 638.516 129.462C638.053 129.925 637.822 130.503 637.822 131.081C637.822 131.66 638.053 132.238 638.516 132.701C638.979 133.164 639.557 133.395 640.136 133.395C640.714 133.395 641.293 133.164 641.755 132.701C642.218 132.238 642.45 131.66 642.45 131.081Z" fill="#DAE6ED"/>
<path d="M642.45 98.9186C642.45 97.646 641.408 96.6047 640.136 96.6047C638.863 96.6047 637.822 97.646 637.822 98.9186C637.822 100.191 638.863 101.233 640.136 101.233C641.408 101.233 642.45 100.191 642.45 98.9186ZM642.45 115C642.45 113.727 641.408 112.686 640.136 112.686C638.863 112.686 637.822 113.727 637.822 115C637.822 116.273 638.863 117.314 640.136 117.314C641.408 117.314 642.45 116.273 642.45 115Z" fill="#DAE6ED"/>
<path d="M642.45 82.8371C642.45 82.2586 642.218 81.6801 641.755 81.2174C641.293 80.7546 640.714 80.5232 640.136 80.5232C639.557 80.5232 638.979 80.7546 638.516 81.2174C638.053 81.6801 637.822 82.2586 637.822 82.8371C637.822 83.4155 638.053 83.994 638.516 84.4568C638.979 84.9196 639.557 85.151 640.136 85.151C640.714 85.151 641.293 84.9196 641.755 84.4568C642.218 83.994 642.45 83.4155 642.45 82.8371Z" fill="#DAE6ED"/>
<path d="M64.9044 173.425V167.294H61.5493V173.425H55.4175V176.781H61.5493V182.797H64.9044V176.781H70.9205V173.425H64.9044Z" fill="#DAE6ED"/>
<path d="M425.292 75.4328C421.474 66.5243 416.846 60.1612 412.565 62.128C408.169 64.0948 409.904 71.7306 414.069 80.5233C418.234 89.3161 429.457 109.215 432.927 107.596C436.398 105.976 429.11 84.4569 425.292 75.4328Z" fill="#FFC6AD"/>
<path d="M452.133 65.9459C455.256 67.5656 444.613 90.2417 441.373 96.4892C438.134 102.737 434.2 109.1 430.845 107.364C427.374 105.629 430.382 98.6874 433.506 92.4399C436.745 86.1924 449.009 64.4419 452.133 65.9459Z" fill="#FFC6AD"/>
<path d="M450.282 63.2848C449.24 65.136 448.893 67.3341 449.935 69.3009C451.901 72.8875 458.843 68.2597 460.81 66.7557C462.545 65.3673 464.049 60.0454 463.124 58.7728C462.545 57.9629 460.347 59.3512 459.884 59.6983C458.033 60.7396 456.529 62.1279 454.562 62.5907C454.447 62.0122 454.794 61.318 455.257 60.8553C455.719 60.3925 456.182 59.9297 456.298 59.2356C456.066 59.0042 455.719 59.0042 455.372 59.0042C453.29 59.1199 451.207 61.6651 450.282 63.2848Z" fill="#FFC6AD"/>
<path d="M390.584 32.6258C390.468 33.7827 390.815 35.0553 390.931 36.2123C391.046 37.2535 390.931 38.2948 390.236 39.2203C389.658 40.0302 389.195 40.3773 389.195 41.5342C389.079 42.9225 390.236 44.4266 389.658 45.6992C389.195 46.7404 387.923 47.3189 387.691 48.3602C387.46 49.5171 388.617 50.674 388.385 51.9467C388.154 53.6821 385.609 54.492 385.724 56.1117C385.84 57.0372 386.65 57.7314 386.881 58.5412C387.113 59.8139 385.956 60.8551 385.609 62.1278C385.262 63.4004 385.84 64.7887 386.534 65.9457C386.766 66.2928 386.997 66.6398 387.228 66.8712C387.575 67.1026 387.923 67.1026 388.27 67.2183C389.774 67.4497 391.393 67.7968 392.782 67.4497C393.823 67.2183 394.749 67.2183 395.905 67.2183C398.335 67.2183 400.765 67.2183 403.194 67.2183C405.508 67.2183 407.822 67.2183 410.136 67.2183C412.103 67.2183 414.532 68.0282 416.499 67.334C417.887 66.8712 418.929 65.2515 418.234 63.9789C417.887 63.169 416.962 62.5905 417.077 61.7807C417.077 61.0865 417.772 60.508 417.887 59.8139C418.119 58.0785 415.689 57.3843 416.152 55.6489C416.383 54.9547 416.846 54.3763 417.309 53.7978C417.772 53.2193 418.234 52.5252 418.119 51.7153C418.003 50.9054 417.309 50.2113 417.193 49.4014C417.077 47.666 419.623 46.5091 419.391 44.7736C419.16 43.7324 418.003 43.0382 418.119 41.997C418.234 41.3028 418.813 40.84 418.813 40.2616C418.813 39.6831 418.466 39.2203 418.234 38.7575C417.772 37.832 417.887 36.7907 417.772 35.8652C417.54 34.1298 416.615 32.6258 415.342 31.4688C414.185 30.1962 412.681 29.2706 411.293 28.3451C410.02 27.5352 408.632 26.9567 407.359 26.2626C406.318 25.6841 405.392 24.8743 404.12 24.7586C403.194 24.6429 402.269 24.8743 401.343 25.1056C399.955 25.4527 398.451 25.7998 397.062 26.1469C395.905 26.3783 394.748 26.7254 393.823 27.3038C392.897 27.8823 392.203 28.6922 391.625 29.6177C391.162 30.3119 390.699 31.1217 390.468 32.0473C390.583 32.163 390.584 32.3944 390.584 32.6258Z" fill="url(#paint5_linear)"/>
<path d="M424.482 82.49C424.482 77.0524 415.226 62.0122 415.226 62.0122L401.806 57.8472L392.666 60.0454C386.997 61.0866 386.766 66.5242 386.766 72.3089C386.766 78.9035 387.807 84.8039 389.08 90.0101H421.59C422.978 87.6963 424.482 84.5725 424.482 82.49Z" fill="#FFC6AD"/>
<path d="M397.409 46.6248V60.2767C397.409 60.2767 399.839 61.7807 405.624 61.7807C408.747 61.7807 409.442 60.2767 409.442 60.2767V55.996L397.409 46.6248Z" fill="#FFC6AD"/>
<path d="M397.178 39.4519C397.178 39.9147 397.178 40.2618 397.294 40.6088C397.294 40.7245 397.294 40.8402 397.294 41.0716C397.062 48.0133 397.757 53.3352 405.624 56.1119C407.012 56.3432 412.103 57.3845 413.954 55.302C416.152 52.8724 417.887 46.5092 417.887 44.311V44.1954C417.887 41.9972 417.54 41.4187 417.54 40.2618C417.54 39.3362 418.003 36.3282 418.119 34.9398C418.119 32.7416 417.309 30.1964 416.383 28.2296C414.532 24.7587 411.524 22.5605 406.665 22.5605C395.443 22.6762 396.831 32.0475 397.178 39.4519Z" fill="#FFC6AD"/>
<path d="M397.294 39.9145C396.368 39.6831 394.402 38.9889 394.749 42.1127C395.443 47.4346 398.567 47.0875 398.567 47.0875C398.335 46.2777 398.104 45.2364 397.872 44.0795C398.682 43.6167 397.988 42.9225 397.872 42.3441C397.872 42.2284 397.757 41.997 397.757 41.8813C397.757 41.0714 397.41 40.6087 397.294 39.9145Z" fill="#FFC6AD"/>
<path d="M397.525 41.7657C397.525 41.7657 396.6 40.8402 395.79 41.1873C395.096 41.5343 395.558 43.2697 396.137 44.311C396.715 45.3522 397.41 45.3522 397.525 45.1209C397.641 44.8895 396.368 44.1953 396.831 43.7325C397.294 43.2697 397.757 43.1541 397.757 42.9227C397.641 42.6913 397.525 41.7657 397.525 41.7657Z" fill="#F2B096"/>
<path d="M399.839 36.7908C399.608 38.7576 397.988 43.0383 397.988 43.0383L396.947 39.2204L399.839 36.7908Z" fill="#112B46"/>
<path d="M407.938 56.4588C405.74 56.1117 401.806 54.8391 399.955 52.7566C399.955 52.7566 400.418 54.7234 402.384 55.8803C404.351 56.8059 407.938 56.4588 407.938 56.4588Z" fill="#F2B096"/>
<path d="M400.996 38.9891C400.88 39.5675 400.996 40.146 400.88 40.7245C400.765 41.7657 400.302 42.9227 399.492 43.7325C398.798 44.4267 398.104 45.2365 397.872 46.1621C397.757 47.0876 398.104 48.0132 398.335 48.9387C398.798 50.6742 397.409 51.9468 397.525 53.5665C397.525 54.9548 399.029 56.3432 398.451 57.7315C398.104 58.5414 397.178 58.8884 396.368 59.0041C394.748 59.0041 393.244 57.9629 392.319 56.4589C391.509 55.0705 391.162 53.3351 391.162 51.7154C391.046 48.476 391.509 45.2365 391.625 41.9971C391.74 38.7577 391.046 35.6339 391.278 32.5102C391.972 23.9488 397.525 25.1058 397.525 25.1058C399.839 21.8663 403.657 21.7506 407.243 21.4035C407.938 21.2878 408.747 21.1721 409.442 21.5192C409.904 21.7506 410.367 22.0977 410.83 22.4448C412.218 23.3703 413.838 23.9488 415.226 24.8744C417.309 26.3784 418.697 28.808 418.929 31.4689C418.929 32.3945 418.813 33.4357 419.16 34.3613C419.276 34.8241 419.507 35.2868 419.738 35.7496C420.085 36.7909 420.317 37.8321 419.97 38.8734C419.391 40.4931 417.656 41.7657 417.772 43.5011C417.887 42.5756 417.656 41.4186 417.54 40.6088C417.425 39.6832 417.193 38.8734 416.383 38.2949C416.036 37.9478 415.458 37.8321 415.111 37.6007C414.069 36.9066 413.838 35.2868 412.681 34.7084C411.987 34.3613 411.177 34.3613 410.367 34.3613C409.557 34.2456 408.747 34.1299 408.053 33.7828C407.591 33.5514 406.781 32.7416 406.434 32.7416C405.508 32.7416 404.582 34.477 404.467 35.2868C404.235 36.0967 404.12 37.0223 403.426 37.485C402.847 37.9478 401.922 37.9478 401.343 38.642C401.112 38.5263 400.996 38.7577 400.996 38.9891Z" fill="url(#paint6_linear)"/>
<path d="M397.409 58.8884C400.302 62.1279 406.434 62.822 407.938 62.3593C409.557 61.8965 409.326 60.2768 409.326 60.2768C409.326 60.2768 417.077 62.2436 419.16 63.8633C421.242 65.483 426.333 75.6641 428.068 80.6389C429.804 85.6138 432.118 91.5142 432.118 91.5142C432.118 91.5142 442.761 74.8542 446.579 69.648C446.579 69.648 450.397 71.2677 452.364 72.7717C452.364 72.7717 446.001 88.3904 442.53 95.6792C439.059 102.968 436.167 107.711 432.465 108.29C428.762 108.868 420.664 94.7536 420.664 94.7536V104.819H389.195L386.766 84.1097C386.766 84.1097 376.469 96.489 373.923 98.9186C371.494 101.348 372.882 101.58 371.61 109.447C370.337 117.314 365.131 135.478 365.131 135.478C365.131 135.478 361.313 136.172 357.726 135.247C357.726 135.247 359.23 114.537 361.313 105.05C363.395 95.5635 369.18 86.7707 373.576 79.482C377.973 72.1932 384.22 64.6731 387.691 62.1279C391.046 59.2355 397.409 58.8884 397.409 58.8884Z" fill="#E5B84A"/>
<path d="M386.766 83.994C390.584 80.6389 391.74 79.4819 391.74 79.4819L391.162 99.0342L388.385 98.1087L386.766 83.994Z" fill="#D3A131"/>
<path d="M432.465 108.29C433.043 108.174 433.506 108.058 434.085 107.711C433.159 105.397 431.771 102.158 430.382 99.4971C427.953 94.985 427.143 86.308 425.639 81.4488C424.135 76.5897 421.821 73.813 421.821 73.813C421.821 73.813 423.788 79.2506 424.366 82.2587C424.945 85.3824 420.664 88.8532 420.548 94.6379C420.664 94.7536 428.763 108.868 432.465 108.29Z" fill="#D3A131"/>
<path d="M592.123 106.901H124.024V447.736H592.123V106.901Z" fill="#DAE6ED"/>
<path d="M581.914 447.679V140.048L113.815 140.048L113.815 447.679L581.914 447.679Z" fill="#F7F9FA"/>
<path d="M581.942 96.7202H113.843V139.99H581.942V96.7202Z" fill="url(#paint7_linear)"/>
<path d="M581.942 129.809H113.843V139.99H581.942V129.809Z" fill="#E4E5E6"/>
<path d="M155.146 118.934C159.044 118.934 162.203 115.774 162.203 111.876C162.203 107.979 159.044 104.819 155.146 104.819C151.248 104.819 148.089 107.979 148.089 111.876C148.089 115.774 151.248 118.934 155.146 118.934Z" fill="#7A3737"/>
<path d="M155.146 115.926C152.832 115.926 150.981 114.074 150.981 111.761V87.4648C150.981 85.1509 152.832 83.2998 155.146 83.2998C157.46 83.2998 159.311 85.1509 159.311 87.4648V111.761C159.311 114.074 157.46 115.926 155.146 115.926Z" fill="#C1D1DB"/>
<path d="M210.217 118.934C214.114 118.934 217.274 115.774 217.274 111.876C217.274 107.979 214.114 104.819 210.217 104.819C206.319 104.819 203.159 107.979 203.159 111.876C203.159 115.774 206.319 118.934 210.217 118.934Z" fill="#7A3737"/>
<path d="M210.216 115.926C207.903 115.926 206.052 114.074 206.052 111.761V87.4648C206.052 85.1509 207.903 83.2998 210.216 83.2998C212.53 83.2998 214.382 85.1509 214.382 87.4648V111.761C214.382 114.074 212.53 115.926 210.216 115.926Z" fill="#C1D1DB"/>
<path d="M272.344 111.876C272.344 115.81 269.105 118.934 265.287 118.934C261.353 118.934 258.229 115.694 258.229 111.876C258.229 107.943 261.469 104.819 265.287 104.819C269.22 104.819 272.344 107.943 272.344 111.876Z" fill="#7A3737"/>
<path d="M265.287 115.926C262.973 115.926 261.122 114.074 261.122 111.761V87.4648C261.122 85.1509 262.973 83.2998 265.287 83.2998C267.601 83.2998 269.452 85.1509 269.452 87.4648V111.761C269.452 114.074 267.601 115.926 265.287 115.926Z" fill="#C1D1DB"/>
<path d="M320.357 118.934C324.255 118.934 327.414 115.774 327.414 111.876C327.414 107.979 324.255 104.819 320.357 104.819C316.459 104.819 313.3 107.979 313.3 111.876C313.3 115.774 316.459 118.934 320.357 118.934Z" fill="#7A3737"/>
<path d="M320.357 115.926C318.043 115.926 316.192 114.074 316.192 111.761V87.4648C316.192 85.1509 318.043 83.2998 320.357 83.2998C322.671 83.2998 324.522 85.1509 324.522 87.4648V111.761C324.522 114.074 322.671 115.926 320.357 115.926Z" fill="#C1D1DB"/>
<path d="M375.428 118.934C379.325 118.934 382.485 115.774 382.485 111.876C382.485 107.979 379.325 104.819 375.428 104.819C371.53 104.819 368.37 107.979 368.37 111.876C368.37 115.774 371.53 118.934 375.428 118.934Z" fill="#7A3737"/>
<path d="M375.428 115.926C373.114 115.926 371.263 114.074 371.263 111.761V87.4648C371.263 85.1509 373.114 83.2998 375.428 83.2998C377.742 83.2998 379.593 85.1509 379.593 87.4648V111.761C379.593 114.074 377.742 115.926 375.428 115.926Z" fill="#C1D1DB"/>
<path d="M430.498 118.934C434.396 118.934 437.555 115.774 437.555 111.876C437.555 107.979 434.396 104.819 430.498 104.819C426.6 104.819 423.441 107.979 423.441 111.876C423.441 115.774 426.6 118.934 430.498 118.934Z" fill="#7A3737"/>
<path d="M430.498 115.926C428.184 115.926 426.333 114.074 426.333 111.761V87.4648C426.333 85.1509 428.184 83.2998 430.498 83.2998C432.812 83.2998 434.663 85.1509 434.663 87.4648V111.761C434.663 114.074 432.812 115.926 430.498 115.926Z" fill="#C1D1DB"/>
<path d="M485.569 118.934C489.466 118.934 492.626 115.774 492.626 111.876C492.626 107.979 489.466 104.819 485.569 104.819C481.671 104.819 478.511 107.979 478.511 111.876C478.511 115.774 481.671 118.934 485.569 118.934Z" fill="#7A3737"/>
<path d="M485.569 115.926C483.255 115.926 481.404 114.074 481.404 111.761V87.4648C481.404 85.1509 483.255 83.2998 485.569 83.2998C487.882 83.2998 489.734 85.1509 489.734 87.4648V111.761C489.734 114.074 487.882 115.926 485.569 115.926Z" fill="#C1D1DB"/>
<path d="M540.639 118.934C544.537 118.934 547.696 115.774 547.696 111.876C547.696 107.979 544.537 104.819 540.639 104.819C536.741 104.819 533.582 107.979 533.582 111.876C533.582 115.774 536.741 118.934 540.639 118.934Z" fill="#7A3737"/>
<path d="M540.639 115.926C538.325 115.926 536.474 114.074 536.474 111.761V87.4648C536.474 85.1509 538.325 83.2998 540.639 83.2998C542.953 83.2998 544.804 85.1509 544.804 87.4648V111.761C544.804 114.074 542.953 115.926 540.639 115.926Z" fill="#C1D1DB"/>
<path d="M147.626 162.666H198.416C204.663 162.666 209.638 167.757 209.638 173.888V213.224C209.638 219.472 204.547 224.447 198.416 224.447H147.626C141.378 224.447 136.404 219.356 136.404 213.224V173.888C136.404 167.641 141.378 162.666 147.626 162.666Z" fill="#858AEE"/>
<path d="M235.091 162.666H285.765C292.012 162.666 296.987 167.757 296.987 173.888V213.224C296.987 219.472 291.897 224.447 285.765 224.447H234.975C228.728 224.447 223.753 219.356 223.753 213.224V173.888C223.753 167.641 228.843 162.666 235.091 162.666Z" fill="#C1D1DB"/>
<path d="M322.44 162.666H373.229C379.477 162.666 384.452 167.757 384.452 173.888V213.224C384.452 219.472 379.361 224.447 373.229 224.447H322.44C316.192 224.447 311.217 219.356 311.217 213.224V173.888C311.217 167.641 316.192 162.666 322.44 162.666Z" fill="#F9CF5B"/>
<path d="M460.694 164.98C465.669 164.98 469.603 169.029 469.603 173.888V213.224C469.603 218.199 465.553 222.133 460.694 222.133H409.904C404.93 222.133 400.996 218.084 400.996 213.224V173.888C400.996 168.913 405.045 164.98 409.904 164.98H460.694ZM460.694 162.666H409.904C403.657 162.666 398.682 167.757 398.682 173.888V213.224C398.682 219.472 403.773 224.447 409.904 224.447H460.694C466.942 224.447 471.917 219.356 471.917 213.224V173.888C471.917 167.641 466.826 162.666 460.694 162.666Z" fill="#EA807D"/>
<path d="M497.254 162.666H548.043C554.291 162.666 559.266 167.757 559.266 173.888V213.224C559.266 219.472 554.175 224.447 548.043 224.447H497.254C491.006 224.447 486.031 219.356 486.031 213.224V173.888C486.031 167.641 491.006 162.666 497.254 162.666Z" fill="url(#paint8_linear)"/>
<path d="M147.626 238.561H198.416C204.663 238.561 209.638 243.652 209.638 249.784V289.12C209.638 295.367 204.547 300.342 198.416 300.342H147.626C141.378 300.342 136.404 295.251 136.404 289.12V249.784C136.404 243.652 141.378 238.561 147.626 238.561Z" fill="url(#paint9_linear)"/>
<path d="M235.091 238.561H285.765C292.012 238.561 296.987 243.652 296.987 249.784V289.12C296.987 295.367 291.897 300.342 285.765 300.342H234.975C228.728 300.342 223.753 295.251 223.753 289.12V249.784C223.753 243.652 228.843 238.561 235.091 238.561Z" fill="#AFB0F1"/>
<path d="M373.229 240.875C378.204 240.875 382.138 244.924 382.138 249.784V289.12C382.138 294.094 378.089 298.028 373.229 298.028H322.44C317.465 298.028 313.531 293.979 313.531 289.12V249.784C313.531 244.809 317.58 240.875 322.44 240.875H373.229ZM373.229 238.561H322.44C316.192 238.561 311.217 243.652 311.217 249.784V289.12C311.217 295.367 316.308 300.342 322.44 300.342H373.229C379.477 300.342 384.452 295.251 384.452 289.12V249.784C384.452 243.652 379.477 238.561 373.229 238.561Z" fill="#BCDFF2"/>
<path d="M409.904 238.561H460.694C466.942 238.561 471.917 243.652 471.917 249.784V289.12C471.917 295.367 466.826 300.342 460.694 300.342H409.904C403.657 300.342 398.682 295.251 398.682 289.12V249.784C398.566 243.652 403.657 238.561 409.904 238.561Z" fill="#C1D1DB"/>
<path d="M548.043 240.875C553.018 240.875 556.952 244.924 556.952 249.784V289.12C556.952 294.094 552.902 298.028 548.043 298.028H497.254C492.279 298.028 488.345 293.979 488.345 289.12V249.784C488.345 244.809 492.394 240.875 497.254 240.875H548.043ZM548.043 238.561H497.254C491.006 238.561 486.031 243.652 486.031 249.784V289.12C486.031 295.367 491.122 300.342 497.254 300.342H548.043C554.291 300.342 559.266 295.251 559.266 289.12V249.784C559.381 243.652 554.291 238.561 548.043 238.561Z" fill="#F9CF5B"/>
<path d="M147.626 314.573H198.416C204.663 314.573 209.638 319.663 209.638 325.795V365.131C209.638 371.378 204.547 376.353 198.416 376.353H147.626C141.378 376.353 136.404 371.263 136.404 365.131V325.795C136.404 319.663 141.378 314.573 147.626 314.573Z" fill="#C1D1DB"/>
<path d="M285.765 316.886C290.74 316.886 294.673 320.936 294.673 325.795V365.131C294.673 370.106 290.624 374.039 285.765 374.039H234.975C230 374.039 226.067 369.99 226.067 365.131V325.795C226.067 320.82 230.116 316.886 234.975 316.886H285.765ZM285.765 314.573H234.975C228.728 314.573 223.753 319.663 223.753 325.795V365.131C223.753 371.378 228.843 376.353 234.975 376.353H285.765C292.012 376.353 296.987 371.263 296.987 365.131V325.795C297.103 319.663 292.012 314.573 285.765 314.573Z" fill="#C1D1DB"/>
<path d="M373.229 316.886C378.204 316.886 382.138 320.936 382.138 325.795V365.131C382.138 370.106 378.089 374.039 373.229 374.039H322.44C317.465 374.039 313.531 369.99 313.531 365.131V325.795C313.531 320.82 317.58 316.886 322.44 316.886H373.229ZM373.229 314.573H322.44C316.192 314.573 311.217 319.663 311.217 325.795V365.131C311.217 371.378 316.308 376.353 322.44 376.353H373.229C379.477 376.353 384.452 371.263 384.452 365.131V325.795C384.452 319.663 379.477 314.573 373.229 314.573Z" fill="#F9CF5B"/>
<path d="M409.904 314.573H460.694C466.942 314.573 471.917 319.663 471.917 325.795V365.131C471.917 371.378 466.826 376.353 460.694 376.353H409.904C403.657 376.353 398.682 371.263 398.682 365.131V325.795C398.566 319.663 403.657 314.573 409.904 314.573Z" fill="#AFB0F1"/>
<path d="M497.254 314.573H548.043C554.291 314.573 559.266 319.663 559.266 325.795V365.131C559.266 371.378 554.175 376.353 548.043 376.353H497.254C491.006 376.353 486.031 371.263 486.031 365.131V325.795C486.031 319.663 491.006 314.573 497.254 314.573Z" fill="#858AEE"/>
<path d="M154.915 196.102L165.327 206.514L191.127 180.599" stroke="white" stroke-width="6" stroke-miterlimit="10"/>
<path d="M329.729 272.113L340.141 282.525L365.941 256.61" stroke="#EA807D" stroke-width="6" stroke-miterlimit="10"/>
<path d="M504.542 196.102L514.955 206.514L540.755 180.599" stroke="white" stroke-width="6" stroke-miterlimit="10"/>
<path d="M559.266 392.897H136.404V397.872H559.266V392.897Z" fill="#C1D1DB"/>
<path d="M559.266 406.434H136.404V411.408H559.266V406.434Z" fill="#C1D1DB"/>
<path d="M559.266 419.97H136.404V424.945H559.266V419.97Z" fill="#C1D1DB"/>
<path d="M109.91 221.554C108.637 232.198 107.249 256.147 107.249 256.147L134.784 256.263L132.817 218.662L122.752 213.456L109.91 221.554Z" fill="url(#paint10_linear)"/>
<path d="M141.725 299.185C137.908 299.879 132.007 277.666 130.156 268.179C128.305 258.576 128.652 250.709 133.395 249.899C138.139 249.089 141.031 256.378 142.42 266.097C143.808 275.699 145.543 298.607 141.725 299.185Z" fill="#FFC6AD"/>
<path d="M172.384 310.639C170.765 313.763 151.791 304.854 146.585 302.193C141.378 299.417 136.056 296.061 137.907 292.706C139.759 289.236 145.428 291.665 150.634 294.442C155.956 296.987 174.004 307.515 172.384 310.639Z" fill="#FFC6AD"/>
<path d="M133.974 382.832C139.412 383.063 143.577 352.983 144.386 340.025C145.196 327.067 143.345 316.771 136.751 316.539C130.156 316.308 127.495 326.373 127.148 339.331C126.801 352.173 128.536 382.601 133.974 382.832Z" fill="#FFC6AD"/>
<path d="M131.429 447.274C136.288 447.505 139.296 404.583 139.759 395.096C140.106 385.493 139.759 375.312 134.437 375.196C128.999 374.965 127.842 385.03 127.495 394.633C126.917 404.12 126.569 447.042 131.429 447.274Z" fill="#FFC6AD"/>
<path d="M108.521 382.716C113.959 383.179 119.628 353.33 121.016 340.488C122.404 327.646 121.132 317.234 114.537 316.655C107.943 316.077 104.819 326.026 103.778 338.868C102.968 351.826 103.199 382.254 108.521 382.716Z" fill="#FFC6AD"/>
<path d="M103.546 447.042C108.405 447.505 112.802 404.814 113.612 395.327C114.537 385.724 114.653 375.659 109.331 375.08C103.893 374.618 102.274 384.567 101.348 394.17C100.423 403.657 98.6872 446.579 103.546 447.042Z" fill="#FFC6AD"/>
<path d="M105.86 326.373H144.155C144.155 326.373 140.8 309.366 140.684 303.234C140.568 298.144 138.486 282.178 138.486 282.178C138.486 282.178 143.114 275.236 143.114 271.534C143.114 265.981 133.742 251.056 133.742 251.056L120.322 246.891L111.182 249.09C105.513 250.131 105.282 255.568 105.282 261.469C105.282 279.054 112.686 290.971 111.992 301.036C111.529 307.399 105.86 326.373 105.86 326.373Z" fill="#FFC6AD"/>
<path d="M99.1499 298.607C102.968 299.532 110.256 277.782 112.686 268.411C115.116 258.924 115.347 251.056 110.604 250.015C105.976 248.858 102.621 256.031 100.538 265.518C98.4557 275.005 95.3319 297.681 99.1499 298.607Z" fill="#FFC6AD"/>
<path d="M115.926 235.669V249.437C115.926 249.437 118.355 250.941 124.14 250.941C127.264 250.941 127.958 249.437 127.958 249.437V245.156L115.926 235.669Z" fill="#FFC6AD"/>
<path d="M127.61 226.992C128.767 227.339 129.23 231.273 128.999 231.273C128.767 231.273 128.073 228.149 127.032 227.57C126.106 227.108 127.61 226.992 127.61 226.992Z" fill="#F2B096"/>
<path d="M132.47 226.992C131.66 227.57 132.007 230.81 132.007 231.041C132.007 231.273 132.586 227.339 132.586 227.339L132.47 226.992Z" fill="#F2B096"/>
<path d="M124.487 230.232C124.487 230.81 124.95 231.273 125.528 231.273C126.107 231.273 126.569 230.81 126.569 230.232C126.569 229.653 126.107 229.19 125.528 229.19C124.95 229.19 124.487 229.653 124.487 230.232Z" fill="#414042"/>
<path d="M123.446 229.422C124.024 229.19 124.718 228.843 125.528 228.843C126.338 228.843 127.032 229.19 127.611 229.422H123.446Z" fill="#414042"/>
<path d="M132.817 230.232C132.817 230.81 133.28 231.273 133.858 231.273C134.437 231.273 134.899 230.81 134.899 230.232C134.899 229.653 134.437 229.19 133.858 229.19C133.164 229.19 132.817 229.653 132.817 230.232Z" fill="#414042"/>
<path d="M132.354 229.422C132.701 229.19 133.28 228.843 133.858 228.843C134.437 228.843 134.899 229.19 135.362 229.422H132.354Z" fill="#414042"/>
<path d="M130.85 235.669C129.809 235.669 128.999 235.553 128.999 235.901C128.999 236.132 129.809 236.479 130.85 236.479C131.891 236.479 132.701 236.132 132.701 235.901C132.585 235.553 131.775 235.669 130.85 235.669Z" fill="#DEBB94"/>
<path d="M130.85 239.718C130.156 239.718 129.462 239.603 129.462 239.834C129.462 240.065 130.04 240.528 130.85 240.528C131.544 240.528 132.238 240.065 132.238 239.834C132.123 239.718 131.544 239.718 130.85 239.718Z" fill="#F2B096"/>
<path d="M127.032 238.099C126.916 238.099 126.801 238.214 126.801 238.214C126.801 238.33 126.801 238.446 126.916 238.446C127.032 238.446 128.652 238.909 130.387 238.909C132.007 238.909 133.742 238.446 133.858 238.446C133.974 238.446 134.09 238.33 133.974 238.214C133.974 238.099 133.858 237.983 133.742 238.099C133.742 238.099 132.007 238.561 130.387 238.561C128.768 238.561 127.032 238.099 127.032 238.099Z" fill="#F2B096"/>
<path d="M127.726 227.339C128.189 227.108 127.495 226.645 126.685 226.645C125.875 226.645 123.677 226.529 122.52 227.57C122.52 227.57 122.636 227.686 123.098 227.455C123.677 227.339 127.379 227.571 127.726 227.339Z" fill="#825E40"/>
<path d="M132.354 227.339C132.123 227.108 132.47 226.645 133.048 226.645C133.627 226.645 135.131 226.529 135.825 227.57C135.825 227.57 135.709 227.686 135.362 227.455C135.131 227.339 132.585 227.571 132.354 227.339Z" fill="#825E40"/>
<path d="M115.694 228.38C115.694 228.843 115.694 229.19 115.81 229.537C115.81 229.653 115.81 229.769 115.81 230C115.579 236.942 116.273 242.264 124.14 245.04C125.528 245.272 130.619 246.313 132.47 244.23C134.668 241.801 136.403 235.438 136.403 233.239V233.124C136.403 230.926 136.056 230.347 136.056 229.074C136.056 228.149 136.519 225.025 136.635 223.753C136.635 221.554 135.825 218.893 134.899 217.042C133.048 213.456 129.925 211.373 125.181 211.373C113.959 211.605 115.347 220.976 115.694 228.38Z" fill="#FFC6AD"/>
<path d="M122.52 217.852C127.148 221.901 135.478 221.786 136.403 226.645L136.056 228.843C136.056 228.843 137.213 226.182 137.56 225.257C138.139 223.174 136.866 219.009 134.437 215.885C129.809 210.101 120.206 208.828 116.157 214.266C116.157 214.266 110.604 213.109 109.909 221.67C109.447 227.571 115.925 248.048 115.925 248.048C115.925 248.048 117.43 246.776 117.892 244.578C119.859 236.363 121.71 222.017 122.751 216.348" fill="url(#paint11_linear)"/>
<path d="M126.454 245.503C124.255 245.156 120.322 243.883 118.471 241.801C118.471 241.801 118.933 243.883 120.9 244.925C122.867 245.85 126.454 245.503 126.454 245.503Z" fill="#F2B096"/>
<path d="M128.073 445.307L127.842 450.282C127.842 450.976 128.421 451.555 129.115 451.555H142.535C143.808 451.555 145.428 449.356 144.386 448.662C142.188 447.274 138.139 445.307 135.825 444.266C135.594 444.15 133.627 403.426 131.66 403.426C129.809 403.426 128.073 445.307 128.073 445.307Z" fill="#FFC6AD"/>
<path d="M100.423 444.96C100.423 444.96 100.423 445.191 100.423 445.538V449.588C100.423 450.051 102.621 451.902 103.662 452.249C107.017 453.637 112.223 452.827 112.57 451.67C112.802 450.513 109.331 446.348 109.331 446.348C108.406 445.191 107.827 444.15 107.827 444.15C107.827 444.15 105.976 403.426 104.125 403.426C101.927 403.541 100.423 444.96 100.423 444.96Z" fill="#FFC6AD"/>
<path d="M144.618 451.554H128.189C127.958 451.554 127.842 451.439 127.842 451.207V448.662C131.197 448.662 138.717 448.778 139.18 448.662C139.643 448.546 141.147 446.927 141.378 446.464C142.651 447.158 144.618 448.315 145.543 449.009C146.585 449.703 146.006 451.554 144.618 451.554Z" fill="url(#paint12_linear)"/>
<path d="M103.662 452.364C102.736 452.017 100.423 450.05 100.423 449.703V447.621L103.662 449.588C105.976 447.158 110.141 446.464 111.182 448.546C111.992 449.819 112.686 451.092 112.57 451.786C112.223 452.943 107.017 453.753 103.662 452.364Z" fill="url(#paint13_linear)"/>
<path d="M104.472 328.803C104.472 328.803 101.695 357.264 101.464 376.122C101.464 376.122 99.497 388.617 98.9185 402.037C98.34 415.574 100.307 441.026 100.307 441.026H108.521L122.52 335.05H126.222V441.026H135.825C135.825 441.026 141.494 398.451 145.08 328.803H104.472Z" fill="url(#paint14_linear)"/>
<path d="M145.659 329.844L139.412 282.062C141.494 279.402 143.577 273.385 143.577 270.724C143.577 269.336 141.725 264.593 139.759 260.081C139.18 258.692 140.916 257.651 140.916 257.651C140.916 257.651 139.874 253.486 137.561 251.056C135.709 249.205 127.958 249.205 127.958 249.205C132.47 250.478 133.511 256.725 132.817 257.188C132.123 257.651 123.562 257.535 121.942 257.188C120.322 256.841 117.43 249.09 113.265 248.511C113.265 248.511 110.372 248.164 107.249 250.131C104.125 252.098 102.852 257.535 102.852 257.535C102.852 257.535 114.422 257.188 113.612 264.014C113.612 264.13 113.612 264.361 113.496 264.477C112.571 271.419 107.711 283.567 107.711 283.567C107.711 283.567 109.678 290.855 109.678 298.954C109.678 307.052 102.737 329.728 102.737 329.728H145.659V329.844Z" fill="url(#paint15_linear)"/>
<path d="M106.67 339.447C110.141 338.868 107.017 313.416 105.86 306.358C104.703 299.185 102.968 291.781 99.1499 292.359C95.332 292.938 96.0262 300.574 97.1831 307.747C98.2244 314.804 103.199 339.91 106.67 339.447Z" fill="#FFC6AD"/>
<path d="M105.745 332.852C101.695 333.199 103.084 340.372 103.662 342.802C104.588 346.735 108.637 350.669 110.141 350.322C111.645 349.975 108.984 341.066 109.331 340.719C109.562 340.372 111.298 344.537 112.686 344.075C114.075 343.612 112.57 337.827 111.066 335.745C109.562 333.546 108.29 332.621 105.745 332.852Z" fill="#FFC6AD"/>
<path d="M168.104 309.366C167.062 313.3 174.004 314.225 176.434 314.688C179.557 315.267 183.722 311.449 183.954 309.829C184.185 308.209 176.665 308.556 176.318 308.209C176.087 307.862 180.83 307.978 180.83 306.474C180.83 304.97 174.814 304.507 172.384 305.317C170.07 306.011 168.682 306.937 168.104 309.366Z" fill="#FFC6AD"/>
<path d="M394.17 61.5492C390.236 58.7726 384.567 64.0945 379.014 72.0774C373.461 80.0603 362.007 99.844 365.246 102.042C368.486 104.356 383.295 87.002 389.079 79.2505C394.98 71.4989 398.104 64.3259 394.17 61.5492Z" fill="#FFC6AD"/>
<path d="M349.975 146.353H400.765C407.012 146.353 411.987 151.444 411.987 157.575V196.911C411.987 203.159 406.896 208.134 400.765 208.134H349.975C343.727 208.134 338.752 203.043 338.752 196.911V157.575C338.752 151.328 343.727 146.353 349.975 146.353Z" fill="url(#paint16_linear)"/>
<path d="M436.398 60.7395C430.845 60.7395 426.333 56.2274 426.333 50.6741V11.3381C426.333 5.78478 430.845 1.27271 436.398 1.27271H487.188C492.741 1.27271 497.254 5.78478 497.254 11.3381V50.6741C497.254 56.2274 492.741 60.7395 487.188 60.7395H436.398Z" fill="#F7F9FA"/>
<path d="M487.188 2.31388C492.163 2.31388 496.097 6.36318 496.097 11.2223V50.5583C496.097 55.5332 492.047 59.4668 487.188 59.4668H436.398C431.424 59.4668 427.49 55.4175 427.49 50.5583V11.2223C427.49 6.24748 431.539 2.31388 436.398 2.31388H487.188ZM487.188 0H436.398C430.151 0 425.176 5.09054 425.176 11.2223V50.5583C425.176 56.8058 430.267 61.7807 436.398 61.7807H487.188C493.436 61.7807 498.41 56.6901 498.41 50.5583V11.2223C498.41 5.09054 493.32 0 487.188 0Z" fill="#BCDFF2"/>
<path d="M359.925 143.114C363.395 143.692 368.717 118.702 369.99 111.645C371.263 104.587 372.072 96.9516 368.255 96.2575C364.437 95.5633 362.586 102.968 361.313 110.025C359.925 117.198 356.454 142.535 359.925 143.114Z" fill="#FFC6AD"/>
<path d="M365.247 141.031C364.552 138.601 363.627 137.329 361.197 136.635C357.264 135.593 355.76 143.808 355.528 146.237C355.297 148.435 358.189 153.295 359.693 153.41C361.197 153.526 362.123 145.196 362.586 145.196C362.933 145.08 363.164 145.543 363.164 146.122H365.478C365.709 144.386 365.594 142.188 365.247 141.031Z" fill="#FFC6AD"/>
<path d="M268.179 439.522H241.338V447.736H268.179V439.522Z" fill="url(#paint17_linear)"/>
<path d="M202.927 439.522H176.086V447.736H202.927V439.522Z" fill="url(#paint18_linear)"/>
<path d="M247.701 312.259H196.564V320.473H247.701V312.259Z" fill="url(#paint19_linear)"/>
<path d="M268.063 316.655H176.086C166.137 316.655 158.154 324.754 158.154 334.588V426.564C158.154 436.514 166.252 444.497 176.086 444.497H268.063C278.013 444.497 285.996 436.398 285.996 426.564V334.588C286.112 324.754 278.013 316.655 268.063 316.655Z" fill="url(#paint20_linear)"/>
<path d="M235.035 435.214C265.194 428.092 283.87 397.87 276.748 367.711C269.627 337.552 239.405 318.876 209.246 325.998C179.087 333.119 160.411 363.341 167.532 393.5C174.654 423.659 204.876 442.335 235.035 435.214Z" fill="#E4E5E6"/>
<path d="M269.821 400.387C280.727 374.058 268.225 343.873 241.896 332.967C215.567 322.061 185.382 334.564 174.476 360.893C163.57 387.222 176.072 417.407 202.401 428.313C228.73 439.219 258.915 426.716 269.821 400.387Z" fill="white"/>
<path d="M222.133 343.496V380.634H248.858" stroke="#EA4F93" stroke-width="2" stroke-miterlimit="10"/>
<path d="M222.133 339.678V333.778" stroke="#858AEE" stroke-width="2" stroke-miterlimit="10" stroke-linecap="round"/>
<path d="M201.655 345.116L198.647 340.025" stroke="#858AEE" stroke-width="2" stroke-miterlimit="10" stroke-linecap="round"/>
<path d="M186.73 360.156L181.524 357.148" stroke="#858AEE" stroke-width="2" stroke-miterlimit="10" stroke-linecap="round"/>
<path d="M181.177 380.634H175.277" stroke="#858AEE" stroke-width="2" stroke-miterlimit="10" stroke-linecap="round"/>
<path d="M186.73 401.112L181.524 404.12" stroke="#858AEE" stroke-width="2" stroke-miterlimit="10" stroke-linecap="round"/>
<path d="M201.655 416.152L198.647 421.242" stroke="#858AEE" stroke-width="2" stroke-miterlimit="10" stroke-linecap="round"/>
<path d="M222.133 421.589V427.49" stroke="#858AEE" stroke-width="2" stroke-miterlimit="10" stroke-linecap="round"/>
<path d="M242.611 416.152L245.619 421.242" stroke="#858AEE" stroke-width="2" stroke-miterlimit="10" stroke-linecap="round"/>
<path d="M257.651 401.112L262.741 404.12" stroke="#858AEE" stroke-width="2" stroke-miterlimit="10" stroke-linecap="round"/>
<path d="M263.089 380.634H268.989" stroke="#858AEE" stroke-width="2" stroke-miterlimit="10" stroke-linecap="round"/>
<path d="M257.651 360.156L262.741 357.148" stroke="#858AEE" stroke-width="2" stroke-miterlimit="10" stroke-linecap="round"/>
<path d="M242.611 345.116L245.619 340.025" stroke="#858AEE" stroke-width="2" stroke-miterlimit="10" stroke-linecap="round"/>
<path d="M226.529 380.634C226.529 378.204 224.562 376.237 222.133 376.237C219.703 376.237 217.736 378.204 217.736 380.634C217.736 383.063 219.703 385.03 222.133 385.03C224.562 385.03 226.529 383.063 226.529 380.634Z" fill="#858AEE"/>
<path d="M589.925 376.469C584.024 376.237 581.942 343.38 582.058 329.381C582.289 315.382 584.95 304.391 592.239 304.623C599.412 304.854 601.494 316.076 600.8 330.075C599.99 343.959 595.825 376.7 589.925 376.469Z" fill="#FFC8AF"/>
<path d="M571.067 373.114C565.166 372.882 563.084 340.025 563.199 326.026C563.431 312.027 566.092 301.036 573.38 301.268C580.554 301.499 582.636 312.721 581.942 326.72C581.132 340.604 576.967 373.23 571.067 373.114Z" fill="#FFC8AF"/>
<path d="M576.041 442.299L576.273 447.505C576.273 448.199 575.694 448.893 574.884 448.893H560.77C559.497 448.893 558.919 447.274 559.96 446.464C562.042 444.844 565.05 442.993 567.827 442.53C568.058 442.53 570.025 398.219 572.223 398.219C574.19 398.104 576.041 442.299 576.041 442.299Z" fill="#FFC8AF"/>
<path d="M572.571 444.15C567.364 444.15 565.86 397.872 565.86 387.46C565.86 377.047 566.67 366.056 572.571 366.056C578.471 366.056 579.281 377.047 579.281 387.46C579.281 397.872 577.777 444.15 572.571 444.15Z" fill="#FFC8AF"/>
<path d="M576.273 443.224V448.199C576.273 448.662 575.926 449.125 575.347 449.125H559.497C558.109 449.125 557.53 447.389 558.572 446.579C560.886 444.844 564.588 443.109 567.249 441.836C567.943 442.414 568.868 444.15 570.025 444.381C571.298 444.497 576.273 443.224 576.273 443.224Z" fill="#2A1C7A"/>
<path d="M599.527 444.497C599.527 444.497 599.527 444.728 599.527 445.191V449.472C599.527 449.935 598.486 451.901 597.445 452.249C593.858 453.753 587.032 452.827 586.801 451.67C586.57 450.397 588.421 447.736 589.925 445.77C590.966 444.497 591.776 443.571 591.776 443.571C591.776 443.571 593.743 400.533 595.709 400.649C597.908 400.88 599.527 444.497 599.527 444.497Z" fill="#FFC8AF"/>
<path d="M596.056 446.464C590.85 446.927 585.991 400.88 585.066 390.584C584.14 380.171 583.909 369.18 589.809 368.717C595.709 368.139 597.445 379.014 598.37 389.427C599.296 399.723 601.263 446.001 596.056 446.464Z" fill="#FFC8AF"/>
<path d="M599.527 445.191V449.472C599.527 449.935 598.486 451.901 597.445 452.249C593.858 453.753 587.032 452.827 586.801 451.67C586.57 450.397 588.421 447.736 589.925 445.77C590.619 445.191 594.437 445.538 595.015 445.77C595.709 446.117 597.098 446.927 597.445 446.927C597.792 446.927 599.527 445.191 599.527 445.191Z" fill="#2A1C7A"/>
<path d="M469.603 268.642C469.487 264.824 497.254 263.204 505.121 262.973C512.988 262.742 521.318 263.204 521.318 267.369C521.434 271.65 513.104 272.344 505.352 272.576C497.601 272.691 469.718 272.344 469.603 268.642Z" fill="#FFC8AF"/>
<path d="M511.253 271.072C509.286 267.369 529.879 253.833 539.019 248.743C548.159 243.652 556.258 241.222 558.687 245.85C561.117 250.362 554.638 255.8 545.267 260.543C536.011 265.287 513.219 274.774 511.253 271.072Z" fill="#FFC8AF"/>
<path d="M476.776 267.832C477.354 270.03 475.503 271.534 473.652 272.344C471.569 273.154 469.024 272.691 467.289 271.187C466.595 270.493 466.016 269.683 465.091 269.336C464.512 269.105 463.818 269.22 463.239 269.22C461.967 269.336 460.694 269.22 459.422 269.22C458.959 269.22 458.265 268.989 458.265 268.526C458.265 268.063 458.843 267.832 459.422 267.716C462.661 267.138 465.9 266.675 469.024 265.981C468.099 265.865 467.289 265.634 466.479 265.287C466.132 265.171 465.9 264.94 465.785 264.593C465.785 264.361 465.9 264.014 466.132 263.898C466.363 263.783 466.595 263.667 466.826 263.667C468.099 263.436 469.487 263.551 470.76 263.667C472.148 263.783 473.883 264.014 475.04 264.824C475.966 265.402 476.429 266.675 476.776 267.832Z" fill="#FFC8AF"/>
<path d="M565.166 234.512L564.125 242.264L559.266 239.95L557.762 239.256C557.762 239.256 551.861 242.148 549.894 243.074C547.928 243.999 531.383 251.056 516.921 261.238C516.921 261.238 484.18 263.551 482.213 263.899C480.362 264.246 479.437 264.824 479.437 264.824L476.66 265.171V272.46H479.552C479.552 272.46 481.75 274.08 486.378 274.195C491.006 274.311 509.633 274.658 518.078 272.576C526.524 270.493 550.82 263.551 550.82 263.551L572.686 257.998L577.198 237.52L565.166 234.512Z" fill="url(#paint21_linear)"/>
<path d="M600.221 317.002L565.86 311.333L556.258 262.163L551.63 244.115L566.67 233.355L577.777 232.314C584.024 231.736 588.189 235.553 589.809 241.685C589.809 241.685 599.064 274.542 599.99 285.649C601.263 302.887 600.221 317.002 600.221 317.002Z" fill="#FFC8AF"/>
<path d="M568.29 224.215L571.761 233.818C571.761 233.818 569.678 238.561 563.662 240.297C560.423 241.222 559.266 239.95 559.266 239.95L557.993 235.438L568.29 224.215Z" fill="#FFC8AF"/>
<path d="M550.82 217.389C549.663 218.084 550.357 222.364 550.589 222.249C550.82 222.133 550.589 218.662 551.514 217.852C552.556 217.042 550.82 217.389 550.82 217.389Z" fill="#F2B49C"/>
<path d="M546.308 218.893C547.233 219.472 547.581 222.711 547.581 222.943C547.581 223.174 546.192 219.356 546.192 219.356L546.308 218.893Z" fill="#F2B49C"/>
<path d="M556.142 216.117L556.258 216.579L551.051 218.083C551.051 218.083 550.704 217.736 550.82 217.505C551.63 216.232 556.142 216.117 556.142 216.117Z" fill="#414042"/>
<path d="M542.606 219.935L542.721 220.397C542.721 220.397 546.308 219.356 546.308 219.24C546.308 219.24 546.308 218.778 546.077 218.662C545.267 218.084 542.606 219.935 542.606 219.935Z" fill="#414042"/>
<path d="M555.101 219.819C555.216 220.397 554.985 220.976 554.407 221.207C553.828 221.323 553.25 221.091 553.018 220.513C552.902 219.934 553.134 219.356 553.712 219.125C554.407 219.009 554.985 219.24 555.101 219.819Z" fill="#414042"/>
<path d="M556.026 218.662C555.448 218.546 554.522 218.431 553.712 218.662C552.903 218.893 552.208 219.472 551.746 219.935L556.026 218.662Z" fill="#414042"/>
<path d="M546.539 222.364C546.655 222.943 546.424 223.521 545.845 223.753C545.267 223.868 544.688 223.637 544.457 223.058C544.341 222.48 544.573 221.902 545.151 221.67C545.845 221.439 546.424 221.786 546.539 222.364Z" fill="#414042"/>
<path d="M546.771 221.323C546.308 221.091 545.73 220.976 545.035 221.207C544.457 221.439 543.994 221.901 543.763 222.248L546.771 221.323Z" fill="#414042"/>
<path d="M550.126 226.992C551.167 226.645 551.977 226.414 552.093 226.645C552.208 226.876 551.398 227.57 550.357 227.802C549.316 228.149 548.39 228.033 548.275 227.686C548.159 227.455 549.085 227.339 550.126 226.992Z" fill="#E0BD96"/>
<path d="M551.399 231.273C552.208 231.041 552.787 230.81 552.787 231.041C552.903 231.273 552.324 231.851 551.63 232.082C550.82 232.314 550.126 231.967 550.01 231.851C550.01 231.62 550.589 231.504 551.399 231.273Z" fill="#F2B49C"/>
<path d="M547.349 230.578C547.233 230.578 547.118 230.694 547.118 230.81C547.118 230.925 547.233 231.041 547.349 231.041C547.465 231.041 549.316 231.041 551.051 230.578C552.787 230.116 554.406 229.074 554.522 229.074C554.638 228.959 554.638 228.843 554.638 228.727C554.522 228.612 554.406 228.612 554.291 228.612C554.291 228.612 552.671 229.653 550.936 230.116C549.316 230.578 547.465 230.578 547.349 230.578C547.465 230.578 547.349 230.578 547.349 230.578Z" fill="#F2B49C"/>
<path d="M567.017 214.729C567.133 215.191 567.249 215.538 567.364 216.001C567.364 216.117 567.48 216.233 567.48 216.464C569.909 223.521 567.48 232.545 560.885 235.669C560.885 235.669 560.885 235.669 560.77 235.785C560.77 235.785 560.654 235.785 560.538 235.901C559.15 236.479 553.828 238.562 551.283 236.942C548.275 235.091 544.804 231.041 543.878 227.802C542.953 224.562 543.3 223.637 542.953 222.364C542.606 221.323 541.217 218.431 540.755 217.042C538.788 210.679 541.333 203.043 548.969 200.845C560.423 197.374 565.166 206.977 567.017 214.729Z" fill="#FFC8AF"/>
<path d="M561.927 216.927C560.77 214.613 558.34 214.15 556.605 212.415C555.101 210.911 554.985 207.903 552.324 207.787C551.63 207.787 551.052 208.018 550.357 208.25C546.655 209.754 543.184 212.067 539.251 212.183C537.631 212.183 536.011 211.836 534.739 210.911C533.466 209.985 532.656 208.25 533.003 206.746C533.35 205.242 534.97 203.969 536.474 204.2C536.011 202.928 536.821 201.424 538.094 200.845C539.366 200.267 540.755 200.382 542.027 200.729C542.027 199.688 542.721 198.647 543.531 197.953C544.341 197.259 545.382 196.912 546.539 196.68C548.043 196.333 549.895 196.564 550.82 197.837C551.63 196.68 552.903 195.986 554.291 195.87C555.679 195.755 557.068 196.333 557.993 197.374C558.109 197.49 558.225 197.721 558.456 197.721C558.803 197.953 559.266 197.721 559.729 197.606C560.885 197.259 562.158 197.49 563.084 198.184C563.778 198.647 564.241 199.457 564.703 200.151C566.439 203.043 567.827 206.283 568.868 209.522C570.604 214.96 570.257 220.629 569.1 226.182L563.894 216.811C563.778 216.811 561.927 216.927 561.927 216.927Z" fill="url(#paint22_linear)"/>
<path d="M563.778 215.885C564.587 215.423 566.554 214.034 567.133 217.389C568.058 223.058 564.703 223.753 564.703 223.753C564.703 222.943 564.587 221.67 564.472 220.397C563.431 220.166 564.356 219.125 564.24 218.431C564.24 218.315 564.24 218.199 564.125 217.968C564.009 217.274 563.893 216.58 563.778 215.885Z" fill="#FFC8AF"/>
<path d="M564.125 217.852C564.125 217.852 564.819 216.579 565.744 216.695C566.67 216.811 566.554 218.778 566.323 220.05C565.976 221.323 565.397 221.554 565.166 221.323C564.935 221.092 566.092 220.05 565.513 219.703C564.935 219.356 564.356 219.356 564.356 219.125C564.24 218.778 564.125 217.852 564.125 217.852Z" fill="#F2B49C"/>
<path d="M561.001 214.15C561.695 215.538 562.042 217.158 562.389 218.662C562.621 219.472 562.736 220.397 563.083 221.207C563.199 221.67 563.546 223.058 564.009 223.174C564.819 223.29 564.125 219.125 564.125 218.662C564.125 218.315 564.009 215.191 563.778 215.191C563.893 215.075 561.001 214.15 561.001 214.15Z" fill="url(#paint23_linear)"/>
<path d="M556.605 237.058C560.191 236.248 563.778 231.504 564.588 229.537C565.398 227.571 564.935 223.406 564.935 223.406C564.935 223.406 565.976 223.29 566.439 221.902C566.439 221.902 566.902 223.637 566.323 224.447C565.86 225.257 565.398 225.488 565.398 225.951C565.398 226.414 566.207 232.083 563.662 234.512C561.464 236.942 556.605 237.058 556.605 237.058Z" fill="#F2B49C"/>
<path d="M602.073 319.663C602.073 319.663 599.527 360.04 599.527 364.437C599.527 368.833 601.494 426.333 600.337 442.299C600.337 442.299 596.288 444.034 590.387 442.299C590.387 442.299 584.603 390.699 584.14 378.32C583.677 366.635 581.479 342.339 581.479 342.339C581.479 342.339 580.206 358.999 580.553 364.552C580.785 370.106 580.669 422.862 577.893 441.373C577.893 441.373 572.455 442.877 567.711 440.448C567.711 440.448 565.282 377.626 564.356 365.247C563.431 352.867 562.621 317.118 562.621 317.118L600.8 315.729L602.073 319.663Z" fill="url(#paint24_linear)"/>
<path d="M602.767 319.432C574.769 324.522 561.001 319.432 561.001 319.432C561.001 319.432 558.224 279.633 556.72 273.038C555.101 266.444 549.663 252.213 550.357 247.239C551.167 242.264 554.407 240.644 556.952 239.718C556.952 239.718 556.836 238.793 558.687 237.983L559.266 240.181L563.431 243.768L564.703 236.479L565.05 234.628L565.976 236.016C568.174 235.206 570.604 233.702 572.802 232.893C576.62 231.62 580.322 231.157 582.405 231.157C588.536 231.041 593.627 246.892 598.255 270.262C602.998 293.516 602.767 319.432 602.767 319.432Z" fill="url(#paint25_linear)"/>
<path d="M556.836 237.52L559.381 240.181L559.266 239.95L558.456 236.942H557.762L556.836 237.52Z" fill="#B7DBF2"/>
<path d="M565.166 234.512L568.29 239.024C570.257 236.248 573.033 232.777 573.033 232.777L570.488 229.769L565.166 234.512Z" fill="#9EC5F8"/>
<path d="M556.952 239.256L557.183 242.264L559.381 240.297V240.181L556.836 237.52L556.952 239.256Z" fill="#9EC5F8"/>
<path d="M568.521 284.492C564.472 283.219 569.447 258.924 572.339 248.743C575.231 238.561 579.281 231.041 584.255 232.545C589.23 234.049 588.42 242.611 585.181 252.676C582.057 262.742 572.686 285.765 568.521 284.492Z" fill="#FFC8AF"/>
<path d="M520.971 286.227C520.508 282.525 548.043 278.36 555.91 277.55C563.662 276.741 571.992 276.393 572.455 280.558C572.917 284.723 564.703 286.227 556.952 287.153C549.085 287.963 521.318 289.93 520.971 286.227Z" fill="#FFC8AF"/>
<path d="M528.028 285.186C528.838 289.583 520.971 290.161 518.194 290.277C513.798 290.392 509.401 285.649 509.286 283.914C509.17 282.178 518.426 284.145 518.773 283.798C519.12 283.335 514.261 282.757 514.261 281.253C514.376 279.633 520.855 279.633 523.516 280.558C526.177 281.484 527.565 282.525 528.028 285.186Z" fill="#FFC8AF"/>
<path d="M582.752 231.041C589.115 231.504 590.85 237.52 588.999 244.693C587.148 251.751 577.198 280.327 572.455 285.071C567.711 289.814 534.97 290.74 532.772 290.277C530.574 289.814 530.226 288.889 530.226 288.889L527.45 288.657C527.45 288.657 525.367 283.914 527.797 281.831L530.921 281.253C530.921 281.253 532.078 279.864 534.391 279.517C536.705 279.17 564.125 275.699 564.125 275.699C564.125 275.699 569.794 251.866 571.761 245.272C573.843 238.562 576.388 230.579 582.752 231.041Z" fill="url(#paint26_linear)"/>
<path d="M394.864 61.8964C395.327 62.2434 395.674 62.7062 396.021 63.2847C397.757 65.9457 397.757 69.5322 396.6 72.4245C395.443 75.4326 393.36 77.8622 391.046 80.176C389.079 82.1428 386.766 83.8783 385.03 85.9607C383.873 87.5805 382.485 88.9688 381.212 90.4728C378.898 93.2495 376.584 96.1418 373.924 98.6871C371.494 101.117 372.882 101.348 371.61 109.215C370.337 117.082 365.131 135.246 365.131 135.246C365.131 135.246 361.313 135.941 357.726 135.015C357.726 135.015 359.23 114.306 361.313 104.819C363.395 95.332 369.18 86.5392 373.576 79.2505C376.122 75.0855 378.898 71.1519 382.138 67.4497C384.683 64.5573 387.575 60.7394 391.856 60.8551C392.55 60.8551 393.36 61.0865 394.054 61.3179C394.286 61.4336 394.517 61.665 394.864 61.8964Z" fill="#E5B84A"/>
<path d="M451.207 61.8964C452.249 60.3924 453.753 58.5413 455.025 58.8884C456.298 59.3512 454.91 60.9709 454.678 61.8964C454.331 62.822 453.984 62.9377 453.984 62.9377L451.207 61.8964Z" fill="#FFC6AD"/>
<path d="M443.687 33.5514L453.984 43.8481L479.784 18.0483" stroke="#858AEE" stroke-width="6" stroke-miterlimit="10"/>
</g>
<defs>
<linearGradient id="paint0_linear" x1="340.673" y1="125.098" x2="340.673" y2="457.162" gradientUnits="userSpaceOnUse">
<stop stop-color="#DAE6ED"/>
<stop offset="1" stop-color="#F7F9FA"/>
</linearGradient>
<linearGradient id="paint1_linear" x1="580.594" y1="313.727" x2="619.386" y2="388.588" gradientUnits="userSpaceOnUse">
<stop stop-color="#C4DDF0"/>
<stop offset="0.999" stop-color="#99B5FA"/>
</linearGradient>
<linearGradient id="paint2_linear" x1="626.915" y1="345.555" x2="626.915" y2="440.031" gradientUnits="userSpaceOnUse">
<stop stop-color="#C4DDF0"/>
<stop offset="0.999" stop-color="#99B5FA"/>
</linearGradient>
<linearGradient id="paint3_linear" x1="98.8057" y1="345.555" x2="98.8057" y2="440.031" gradientUnits="userSpaceOnUse">
<stop stop-color="#C4DDF0"/>
<stop offset="0.999" stop-color="#99B5FA"/>
</linearGradient>
<linearGradient id="paint4_linear" x1="100.207" y1="277.805" x2="100.207" y2="386.494" gradientUnits="userSpaceOnUse">
<stop stop-color="#C4DDF0"/>
<stop offset="0.999" stop-color="#99B5FA"/>
</linearGradient>
<linearGradient id="paint5_linear" x1="402.652" y1="23.4317" x2="402.652" y2="55.1042" gradientUnits="userSpaceOnUse">
<stop stop-color="#DD697B"/>
<stop offset="1" stop-color="#BC2773"/>
</linearGradient>
<linearGradient id="paint6_linear" x1="405.709" y1="23.4318" x2="405.709" y2="55.1043" gradientUnits="userSpaceOnUse">
<stop stop-color="#DD697B"/>
<stop offset="1" stop-color="#BC2773"/>
</linearGradient>
<linearGradient id="paint7_linear" x1="279.966" y1="0.836845" x2="415.733" y2="235.991" gradientUnits="userSpaceOnUse">
<stop stop-color="#DD697B"/>
<stop offset="1" stop-color="#BC2773"/>
</linearGradient>
<linearGradient id="paint8_linear" x1="502.169" y1="158.057" x2="543.173" y2="229.079" gradientUnits="userSpaceOnUse">
<stop stop-color="#C4DDF0"/>
<stop offset="0.999" stop-color="#99B5FA"/>
</linearGradient>
<linearGradient id="paint9_linear" x1="152.526" y1="234.051" x2="193.53" y2="305.072" gradientUnits="userSpaceOnUse">
<stop stop-color="#C4DDF0"/>
<stop offset="0.999" stop-color="#99B5FA"/>
</linearGradient>
<linearGradient id="paint10_linear" x1="120.991" y1="212.447" x2="120.991" y2="250.543" gradientUnits="userSpaceOnUse">
<stop stop-color="#4D5DEA"/>
<stop offset="0.327" stop-color="#4136E9"/>
<stop offset="1" stop-color="#420085"/>
</linearGradient>
<linearGradient id="paint11_linear" x1="123.737" y1="212.447" x2="123.737" y2="250.544" gradientUnits="userSpaceOnUse">
<stop stop-color="#4D5DEA"/>
<stop offset="0.327" stop-color="#4136E9"/>
<stop offset="1" stop-color="#420085"/>
</linearGradient>
<linearGradient id="paint12_linear" x1="133.824" y1="445.065" x2="139.425" y2="454.765" gradientUnits="userSpaceOnUse">
<stop stop-color="#DD697B"/>
<stop offset="1" stop-color="#BC2773"/>
</linearGradient>
<linearGradient id="paint13_linear" x1="103.832" y1="445.592" x2="108.782" y2="454.165" gradientUnits="userSpaceOnUse">
<stop stop-color="#DD697B"/>
<stop offset="1" stop-color="#BC2773"/>
</linearGradient>
<linearGradient id="paint14_linear" x1="93.8" y1="334.923" x2="150.226" y2="432.657" gradientUnits="userSpaceOnUse">
<stop stop-color="#4D5DEA"/>
<stop offset="0.327" stop-color="#4136E9"/>
<stop offset="1" stop-color="#420085"/>
</linearGradient>
<linearGradient id="paint15_linear" x1="99.5738" y1="254.585" x2="143.705" y2="331.022" gradientUnits="userSpaceOnUse">
<stop stop-color="#DD697B"/>
<stop offset="1" stop-color="#BC2773"/>
</linearGradient>
<linearGradient id="paint16_linear" x1="354.881" y1="141.735" x2="395.885" y2="212.756" gradientUnits="userSpaceOnUse">
<stop stop-color="#C4DDF0"/>
<stop offset="0.999" stop-color="#99B5FA"/>
</linearGradient>
<linearGradient id="paint17_linear" x1="249.631" y1="434.685" x2="259.909" y2="452.487" gradientUnits="userSpaceOnUse">
<stop stop-color="#DD697B"/>
<stop offset="1" stop-color="#BC2773"/>
</linearGradient>
<linearGradient id="paint18_linear" x1="184.367" y1="434.685" x2="194.645" y2="452.487" gradientUnits="userSpaceOnUse">
<stop stop-color="#DD697B"/>
<stop offset="1" stop-color="#BC2773"/>
</linearGradient>
<linearGradient id="paint19_linear" x1="213.967" y1="302.221" x2="230.309" y2="330.526" gradientUnits="userSpaceOnUse">
<stop stop-color="#DD697B"/>
<stop offset="1" stop-color="#BC2773"/>
</linearGradient>
<linearGradient id="paint20_linear" x1="181.762" y1="310.699" x2="262.514" y2="450.566" gradientUnits="userSpaceOnUse">
<stop stop-color="#DD697B"/>
<stop offset="1" stop-color="#BC2773"/>
</linearGradient>
<linearGradient id="paint21_linear" x1="527.154" y1="234.539" x2="527.154" y2="274.276" gradientUnits="userSpaceOnUse">
<stop stop-color="#C4DDF0"/>
<stop offset="0.999" stop-color="#99B5FA"/>
</linearGradient>
<linearGradient id="paint22_linear" x1="551.527" y1="201.781" x2="551.527" y2="220.548" gradientUnits="userSpaceOnUse">
<stop stop-color="#5B2A8B"/>
<stop offset="0.1693" stop-color="#4B2784"/>
<stop offset="0.4267" stop-color="#38247D"/>
<stop offset="0.6972" stop-color="#2E2378"/>
<stop offset="1" stop-color="#2A2277"/>
</linearGradient>
<linearGradient id="paint23_linear" x1="562.754" y1="201.781" x2="562.754" y2="220.548" gradientUnits="userSpaceOnUse">
<stop stop-color="#5B2A8B"/>
<stop offset="0.1693" stop-color="#4B2784"/>
<stop offset="0.4267" stop-color="#38247D"/>
<stop offset="0.6972" stop-color="#2E2378"/>
<stop offset="1" stop-color="#2A2277"/>
</linearGradient>
<linearGradient id="paint24_linear" x1="582.213" y1="315.64" x2="582.213" y2="443.039" gradientUnits="userSpaceOnUse">
<stop stop-color="#5B2A8B"/>
<stop offset="0.1693" stop-color="#4B2784"/>
<stop offset="0.4267" stop-color="#38247D"/>
<stop offset="0.6972" stop-color="#2E2378"/>
<stop offset="1" stop-color="#2A2277"/>
</linearGradient>
<linearGradient id="paint25_linear" x1="576.533" y1="231.061" x2="576.533" y2="321.753" gradientUnits="userSpaceOnUse">
<stop stop-color="#C4DDF0"/>
<stop offset="0.999" stop-color="#99B5FA"/>
</linearGradient>
<linearGradient id="paint26_linear" x1="526.595" y1="260.703" x2="589.706" y2="260.703" gradientUnits="userSpaceOnUse">
<stop stop-color="#C4DDF0"/>
<stop offset="0.999" stop-color="#99B5FA"/>
</linearGradient>
<clipPath id="clip0">
<rect width="695.669" height="460" fill="white"/>
</clipPath>
</defs>
</svg>
