<svg width="48" height="48" viewBox="0 0 48 48" fill="none" xmlns="http://www.w3.org/2000/svg">
<path d="M4 24V8.00003C4 2.50003 8 3.05176e-05 11 3.50003" stroke="#FA5002" stroke-width="3" stroke-linecap="round"/>
<path d="M12.9443 2.54217C12.652 2.48618 12.3499 2.56334 12.1202 2.75266L10.1997 4.33558C9.96999 4.5249 9.83657 4.8067 9.83572 5.10436L9.83288 6.0876C9.83044 6.93426 10.8156 7.40065 11.4689 6.86214L14.3579 4.48094C15.0113 3.94244 14.7415 2.88638 13.91 2.72712L12.9443 2.54217Z" fill="#FA5002"/>
<path d="M20 6.5L17.5 6" stroke="#2B4CDE" stroke-linecap="round"/>
<path d="M18 10L16 8" stroke="#2B4CDE" stroke-linecap="round"/>
<path d="M14.5 11.5L14 9" stroke="#2B4CDE" stroke-linecap="round"/>
<rect x="1" y="25" width="46" height="4" rx="2" stroke="#152C5B" stroke-width="2"/>
<path d="M5 28.9222H3.5V30.4222V34.2222C3.5 37.8121 6.41015 40.7222 10 40.7222H38C41.5899 40.7222 44.5 37.8121 44.5 34.2222V30.4222V28.9222H43H5Z" stroke="#152C5B" stroke-width="3"/>
<path d="M9 41V46" stroke="#152C5B" stroke-width="3" stroke-linecap="round"/>
<path d="M39 41V46" stroke="#152C5B" stroke-width="3" stroke-linecap="round"/>
</svg>
