<svg width="49" height="49" viewBox="0 0 49 49" fill="none" xmlns="http://www.w3.org/2000/svg">
<path d="M15 14.5L19.1962 8L23.5 12.5" stroke="#152C5B"/>
<path d="M22.5 14.5L29 5L36 14.5" stroke="#152C5B"/>
<path d="M24 35.3572C24 35.3572 24 26.7502 24 23.8812C24 21.0122 20.8235 21.0122 20.8235 21.0122H9.17647C9.17647 21.0122 6.5 20.6747 6.5 23.5437" stroke="#152C5B" stroke-width="3" stroke-linecap="round"/>
<path d="M24 35.3572C24 35.3572 24 24.8376 24 23.8812C24 21.0122 27.1765 21.0122 27.1765 21.0122H38.8235C38.8235 21.0122 42 20.6747 42 23.5437" stroke="#152C5B" stroke-width="3" stroke-linecap="round"/>
<path d="M9 37C9 35.8954 9.89543 35 11 35H21C22.1046 35 23 35.8954 23 37V40H9V37Z" stroke="#152C5B" stroke-width="3"/>
<path d="M26 37C26 35.8954 26.8954 35 28 35H38C39.1046 35 40 35.8954 40 37V40H26V37Z" stroke="#152C5B" stroke-width="3"/>
<rect x="9.5" y="41.5" width="30" height="5" stroke="#152C5B" stroke-width="3"/>
<path d="M1.5 27.1999C1.5 25.543 2.84314 24.1999 4.5 24.1999C6.15685 24.1999 7.5 25.543 7.5 27.1999V46.5145H1.5V27.1999Z" stroke="#152C5B" stroke-width="3"/>
<path d="M41.5 27.1999C41.5 25.543 42.8431 24.1999 44.5 24.1999C46.1569 24.1999 47.5 25.543 47.5 27.1999V46.5145H41.5V27.1999Z" stroke="#152C5B" stroke-width="3"/>
<rect x="9.5" y="0.5" width="30" height="16" stroke="#152C5B"/>
<rect x="11.5" y="2.5" width="26" height="12" stroke="#FA5002"/>
<circle cx="21.5" cy="5.5" r="1" stroke="#FA5002"/>
</svg>
