<svg width="48" height="39" viewBox="0 0 48 39" fill="none" xmlns="http://www.w3.org/2000/svg">
<rect x="2" y="2" width="44" height="20" rx="4" stroke="#152C5B" stroke-width="3"/>
<path d="M30 7L33 7" stroke="#152C5B" stroke-width="3" stroke-linecap="round"/>
<path d="M38 7L41 7" stroke="#152C5B" stroke-width="3" stroke-linecap="round"/>
<path d="M7 22V22C7 18.134 10.134 15 14 15H34C37.866 15 41 18.134 41 22V22" stroke="#152C5B" stroke-width="3" stroke-linecap="round"/>
<path d="M25 27C25 26.1716 24.3284 25.5 23.5 25.5C22.6716 25.5 22 26.1716 22 27H25ZM22 37C22 37.8284 22.6716 38.5 23.5 38.5C24.3284 38.5 25 37.8284 25 37H22ZM22 27V37H25V27H22Z" fill="#FA5002"/>
<path d="M20 27C20 26.1716 19.3284 25.5 18.5 25.5C17.6716 25.5 17 26.1716 17 27H20ZM15 35.5C14.1716 35.5 13.5 36.1716 13.5 37C13.5 37.8284 14.1716 38.5 15 38.5V35.5ZM17 27V32.5H20V27H17ZM18.5 32.5C17 32.5 17 32.4994 17 32.4989C17 32.4988 17 32.4982 17 32.4979C17 32.4973 17 32.4967 17 32.4962C17 32.4952 17 32.4945 17 32.494C17 32.493 17 32.4931 17 32.4941C17 32.4961 16.9999 32.5021 16.9996 32.5117C16.9991 32.5309 16.998 32.5644 16.9955 32.6102C16.9904 32.7021 16.9797 32.8409 16.9578 33.0103C16.9128 33.3568 16.8255 33.7922 16.6645 34.2063C16.5017 34.625 16.2925 34.9478 16.0472 35.158C15.8306 35.3437 15.5218 35.5 15 35.5V38.5C16.2282 38.5 17.2319 38.0938 17.9996 37.4358C18.7388 36.8022 19.1858 36 19.4605 35.2937C19.737 34.5828 19.8684 33.8932 19.9329 33.396C19.9656 33.1434 19.9823 32.9307 19.9909 32.7766C19.9951 32.6993 19.9974 32.6361 19.9986 32.5894C19.9992 32.566 19.9996 32.5467 19.9998 32.5317C19.9999 32.5242 19.9999 32.5178 20 32.5125C20 32.5099 20 32.5075 20 32.5054C20 32.5044 20 32.5034 20 32.5025C20 32.502 20 32.5014 20 32.5012C20 32.5006 20 32.5 18.5 32.5Z" fill="#FA5002"/>
<path d="M27.5 27C27.5 26.1716 28.1716 25.5 29 25.5C29.8284 25.5 30.5 26.1716 30.5 27H27.5ZM32.5 35.5C33.3284 35.5 34 36.1716 34 37C34 37.8284 33.3284 38.5 32.5 38.5V35.5ZM30.5 27V32.5H27.5V27H30.5ZM29 32.5C30.5 32.5 30.5 32.4994 30.5 32.4989C30.5 32.4988 30.5 32.4982 30.5 32.4979C30.5 32.4973 30.5 32.4967 30.5 32.4962C30.5 32.4952 30.5 32.4945 30.5 32.494C30.5 32.493 30.5 32.4931 30.5 32.4941C30.5 32.4961 30.5001 32.5021 30.5004 32.5117C30.5009 32.5309 30.502 32.5644 30.5045 32.6102C30.5096 32.7021 30.5203 32.8409 30.5422 33.0103C30.5872 33.3568 30.6745 33.7922 30.8355 34.2063C30.9983 34.625 31.2075 34.9478 31.4528 35.158C31.6694 35.3437 31.9782 35.5 32.5 35.5V38.5C31.2718 38.5 30.2681 38.0938 29.5004 37.4358C28.7612 36.8022 28.3142 36 28.0395 35.2937C27.763 34.5828 27.6316 33.8932 27.5671 33.396C27.5344 33.1434 27.5177 32.9307 27.5091 32.7766C27.5049 32.6993 27.5026 32.6361 27.5014 32.5894C27.5008 32.566 27.5004 32.5467 27.5002 32.5317C27.5001 32.5242 27.5001 32.5178 27.5 32.5125C27.5 32.5099 27.5 32.5075 27.5 32.5054C27.5 32.5044 27.5 32.5034 27.5 32.5025C27.5 32.502 27.5 32.5014 27.5 32.5012C27.5 32.5006 27.5 32.5 29 32.5Z" fill="#FA5002"/>
</svg>
