<svg width="50" height="51" viewBox="0 0 50 51" fill="none" xmlns="http://www.w3.org/2000/svg">
<mask id="path-1-inside-1" fill="white">
<path fill-rule="evenodd" clip-rule="evenodd" d="M40 25H12V32H22V48H29V32H40V25Z"/>
</mask>
<path d="M12 25V22H9V25H12ZM40 25H43V22H40V25ZM12 32H9V35H12V32ZM22 32H25V29H22V32ZM22 48H19V51H22V48ZM29 48V51H32V48H29ZM29 32V29H26V32H29ZM40 32V35H43V32H40ZM12 28H40V22H12V28ZM15 32V25H9V32H15ZM22 29H12V35H22V29ZM25 48V32H19V48H25ZM29 45H22V51H29V45ZM26 32V48H32V32H26ZM40 29H29V35H40V29ZM37 25V32H43V25H37Z" fill="#152C5B" mask="url(#path-1-inside-1)"/>
<mask id="path-3-inside-2" fill="white">
<path fill-rule="evenodd" clip-rule="evenodd" d="M43.0769 18H50V32.7447V39.4468H43.0769H32V32.7447H43.0769V18Z"/>
</mask>
<path d="M50 18V15H53V18H50ZM43.0769 18H40.0769V15H43.0769V18ZM50 39.4468H53V42.4468H50V39.4468ZM32 39.4468V42.4468H29V39.4468H32ZM32 32.7447H29V29.7447H32V32.7447ZM43.0769 32.7447H46.0769V35.7447H43.0769V32.7447ZM50 21H43.0769V15H50V21ZM47 32.7447V18H53V32.7447H47ZM47 39.4468V32.7447H53V39.4468H47ZM43.0769 36.4468H50V42.4468H43.0769V36.4468ZM32 36.4468H43.0769V42.4468H32V36.4468ZM35 32.7447V39.4468H29V32.7447H35ZM43.0769 35.7447H32V29.7447H43.0769V35.7447ZM46.0769 18V32.7447H40.0769V18H46.0769Z" fill="#152C5B" mask="url(#path-3-inside-2)"/>
<path d="M34 38V50.5" stroke="#152C5B" stroke-width="3"/>
<path d="M48 38V50.5" stroke="#152C5B" stroke-width="3"/>
<mask id="path-7-inside-3" fill="white">
<path fill-rule="evenodd" clip-rule="evenodd" d="M6.92308 18H0V32.7447V39.4468H6.92308H18V32.7447H6.92308V18Z"/>
</mask>
<path d="M0 18V15H-3V18H0ZM6.92308 18H9.92308V15H6.92308V18ZM0 39.4468H-3V42.4468H0V39.4468ZM18 39.4468V42.4468H21V39.4468H18ZM18 32.7447H21V29.7447H18V32.7447ZM6.92308 32.7447H3.92308V35.7447H6.92308V32.7447ZM0 21H6.92308V15H0V21ZM3 32.7447V18H-3V32.7447H3ZM3 39.4468V32.7447H-3V39.4468H3ZM6.92308 36.4468H0V42.4468H6.92308V36.4468ZM18 36.4468H6.92308V42.4468H18V36.4468ZM15 32.7447V39.4468H21V32.7447H15ZM6.92308 35.7447H18V29.7447H6.92308V35.7447ZM3.92308 18V32.7447H9.92308V18H3.92308Z" fill="#152C5B" mask="url(#path-7-inside-3)"/>
<path d="M16 38V50.5" stroke="#152C5B" stroke-width="3"/>
<path d="M2 38V50.5" stroke="#152C5B" stroke-width="3"/>
<rect x="2" y="1" width="46" height="2" fill="#C4C4C4" stroke="#FA5002" stroke-width="2"/>
<path d="M25 1.5V5.25V9" stroke="#FA5002" stroke-width="3"/>
<path d="M19 11C19 8.23858 21.2386 6 24 6H26C28.7614 6 31 8.23858 31 11V15H19V11Z" fill="#FA5002"/>
</svg>
