<svg width="28" height="48" viewBox="0 0 28 48" fill="none" xmlns="http://www.w3.org/2000/svg">
<path d="M25.5 43C25.5 43.0999 25.4505 43.3803 24.9509 43.8177C24.4543 44.2526 23.6493 44.7125 22.525 45.1289C20.288 45.9574 17.0975 46.5 13.5 46.5C9.90254 46.5 6.71202 45.9574 4.47503 45.1289C3.35074 44.7125 2.54567 44.2526 2.04907 43.8177C1.54953 43.3803 1.5 43.0999 1.5 43C1.5 42.9001 1.54953 42.6197 2.04907 42.1823C2.54567 41.7474 3.35074 41.2875 4.47503 40.8711C6.71202 40.0426 9.90254 39.5 13.5 39.5C17.0975 39.5 20.288 40.0426 22.525 40.8711C23.6493 41.2875 24.4543 41.7474 24.9509 42.1823C25.4505 42.6197 25.5 42.9001 25.5 43Z" fill="white" stroke="#152C5B" stroke-width="3"/>
<path d="M26.5 15.4359C26.5 19.4491 24.9949 26.5184 22.5109 32.5975C21.2727 35.6279 19.8308 38.312 18.2859 40.2109C16.7047 42.1544 15.2476 43 14 43C12.7524 43 11.2953 42.1544 9.71413 40.2109C8.16921 38.312 6.72731 35.6279 5.48906 32.5975C3.00513 26.5184 1.5 19.4491 1.5 15.4359C1.5 7.59815 7.23089 1.5 14 1.5C20.7691 1.5 26.5 7.59815 26.5 15.4359Z" fill="white" stroke="#152C5B" stroke-width="3"/>
<circle cx="13.5" cy="15.5" r="6" stroke="#FA5002" stroke-width="3"/>
</svg>
