<svg width="48" height="48" viewBox="0 0 48 36" fill="none" xmlns="http://www.w3.org/2000/svg">
<path d="M4.28571 6.85715C4.28571 5.43699 5.43697 4.28572 6.85713 4.28572H10.2857C11.7059 4.28572 12.8571 5.43699 12.8571 6.85715V6.85715H4.28571V6.85715Z" stroke="#FA5002"/>
<circle cx="24" cy="20.5714" r="9.07143" stroke="#FA5002"/>
<circle cx="24" cy="20.5714" r="5.85714" stroke="#152C5B" stroke-width="2"/>
<circle cx="8.14286" cy="14.1429" r="0.785714" stroke="#FA5002"/>
<mask id="path-5-inside-1" fill="white">
<path fill-rule="evenodd" clip-rule="evenodd" d="M28.2857 0H19.7143L16.2857 6.85714H5C2.23858 6.85714 0 9.09571 0 11.8571V31C0 33.7614 2.23858 36 5 36H43C45.7614 36 48 33.7614 48 31V11.8571C48 9.09572 45.7614 6.85714 43 6.85714H31.7143L28.2857 0Z"/>
</mask>
<path d="M19.7143 0V-3C18.578 -3 17.5392 -2.35799 17.031 -1.34164L19.7143 0ZM28.2857 0L30.969 -1.34164C30.4608 -2.35799 29.422 -3 28.2857 -3V0ZM16.2857 6.85714V9.85714C17.422 9.85714 18.4608 9.21514 18.969 8.19878L16.2857 6.85714ZM31.7143 6.85714L29.031 8.19878C29.5392 9.21514 30.578 9.85714 31.7143 9.85714V6.85714ZM19.7143 3H28.2857V-3H19.7143V3ZM18.969 8.19878L22.3976 1.34164L17.031 -1.34164L13.6024 5.5155L18.969 8.19878ZM5 9.85714H16.2857V3.85714H5V9.85714ZM3 11.8571C3 10.7526 3.89543 9.85714 5 9.85714V3.85714C0.581726 3.85714 -3 7.43886 -3 11.8571H3ZM3 31V11.8571H-3V31H3ZM5 33C3.89543 33 3 32.1046 3 31H-3C-3 35.4183 0.581724 39 5 39V33ZM43 33H5V39H43V33ZM45 31C45 32.1046 44.1046 33 43 33V39C47.4183 39 51 35.4183 51 31H45ZM45 11.8571V31H51V11.8571H45ZM43 9.85714C44.1046 9.85714 45 10.7526 45 11.8571H51C51 7.43886 47.4183 3.85714 43 3.85714V9.85714ZM31.7143 9.85714H43V3.85714H31.7143V9.85714ZM25.6024 1.34164L29.031 8.19878L34.3976 5.5155L30.969 -1.34164L25.6024 1.34164Z" fill="#152C5B" mask="url(#path-5-inside-1)"/>
</svg>
