<svg width="44" height="33" viewBox="0 0 44 33" fill="none" xmlns="http://www.w3.org/2000/svg">
<path fill-rule="evenodd" clip-rule="evenodd" d="M4 22.296H8V4.12193H36V6.14127L30 6.14126C27.7909 6.14126 26 7.94944 26 10.1799V22.296H0V28.354C0 30.5845 1.79086 32.3927 4 32.3927L30 32.3927H40C42.2091 32.3927 44 30.5845 44 28.354V10.1799C44 7.94944 42.2091 6.14126 40 6.14127V4.12193C40 1.89143 38.2091 0.083252 36 0.083252H8C5.79086 0.083252 4 1.89143 4 4.12193V22.296ZM4 26.3347H26V28.354L4 28.354V26.3347ZM30 28.354V10.1799H40V28.354H30Z" fill="#2B4CDE"/>
</svg>
