<svg width="32" height="29" viewBox="0 0 32 29" fill="none" xmlns="http://www.w3.org/2000/svg">
<path d="M15.0489 0.946584C15.3483 0.0252728 16.6517 0.0252712 16.9511 0.946582L19.8167 9.76624C19.9506 10.1783 20.3346 10.4572 20.7678 10.4572H30.0413C31.0101 10.4572 31.4128 11.6968 30.6291 12.2662L23.1267 17.7171C22.7762 17.9717 22.6295 18.4231 22.7634 18.8351L25.6291 27.6548C25.9284 28.5761 24.874 29.3422 24.0902 28.7728L16.5878 23.322C16.2373 23.0673 15.7627 23.0673 15.4122 23.322L7.90976 28.7728C7.12605 29.3422 6.07157 28.5761 6.37092 27.6548L9.2366 18.8351C9.37048 18.4231 9.22382 17.9717 8.87333 17.7171L1.37088 12.2662C0.587169 11.6968 0.989944 10.4572 1.95867 10.4572H11.2322C11.6654 10.4572 12.0494 10.1783 12.1833 9.76624L15.0489 0.946584Z" fill="#F2E90D"/>
</svg>
